M48
;Layer_Color=9474304
;FILE_FORMAT=2:5
INCH,LZ
;TYPE=PLATED
T1F00S00C0.02362
T2F00S00C0.02800
T3F00S00C0.03150
T4F00S00C0.03543
T5F00S00C0.03937
T6F00S00C0.04723
T7F00S00C0.04724
%
T01
X0258Y0337866
Y0346134
T02
X02095Y0277202
X02193Y02793
X02359Y02784
X02581Y02686
X02851Y02669
X02868Y02798
X02849Y02959
X02922Y02954
X02915Y0311
X03065Y03028
X031005Y027795
X02758Y02963
X02615Y03035
X02512Y02992
X02277Y03111
X02125Y03028
X0205Y03004
X02007Y03082
X0196Y03124
X02225Y031935
X02317Y03172
X02565Y03165
X02523Y03312
X02383Y0342
X0221Y03596
X0184Y0366
X0166
X017Y0398
X0165Y03233
X02769Y03322
X02822Y03144
X03011Y03157
X0294Y03455
X0328Y03365
X03374Y03348
T03
X0286394Y03392
X0305606
T04
X0328Y0266
Y0276
X0344
Y0286
Y0296
Y0306
X036
X037
Y0296
X036
Y0286
X037
Y0276
X036
Y0266
X037
X0344
X0192Y0268
X0182
X0172
X0162
X0242Y0374
X0252
X0262
X029Y0364
X03
X031
X032
X033
X034
X0344Y0336
Y0326
Y0316
X036
Y0326
Y0336
X037
Y0326
Y0316
T05
X0118457Y0266
X0122
X0149992Y0266354
Y0269898
X0133972Y0294118
X0130429
X0137331Y030302
X0140874
X0106228Y0286
Y0282457
X0118256Y0319882
X0121799
X0149791Y0320236
Y032378
X0133772Y0348
X0130228
X013713Y0356902
X0140673
X0106028Y0339882
Y0336339
T06
X0116Y0382
Y0402
Y042
Y044
T07
X033Y0305409
X0139409Y0444
X0180591
X0236Y0442
X0246
X0218Y0410591
Y0369409
X0236Y0362
X0246
X033Y0346591
X0356Y0362
X0366
Y0442
X0356
M30
