%FSLAX25Y25*%
%MOIN*%
G70*
G01*
G75*
G04 Layer_Color=8388736*
%ADD10R,0.05906X0.05512*%
%ADD11O,0.02756X0.09055*%
%ADD12R,0.05709X0.02362*%
%ADD13R,0.04331X0.05512*%
%ADD14R,0.03937X0.05118*%
%ADD15R,0.05512X0.04331*%
%ADD16O,0.02362X0.09055*%
%ADD17R,0.05906X0.11024*%
%ADD18R,0.11024X0.05906*%
%ADD19R,0.05118X0.03937*%
%ADD20R,0.05512X0.05906*%
%ADD21R,0.05906X0.05906*%
%ADD22O,0.08661X0.02362*%
%ADD23R,0.06102X0.13583*%
%ADD24R,0.06102X0.04331*%
%ADD25R,0.06102X0.04331*%
%ADD26C,0.01200*%
%ADD27C,0.04724*%
%ADD28O,0.07087X0.10630*%
%ADD29O,0.10630X0.07087*%
%ADD30C,0.05906*%
%ADD31R,0.05906X0.05906*%
%ADD32C,0.07874*%
%ADD33R,0.07874X0.07874*%
%ADD34C,0.05512*%
%ADD35P,0.05966X8X202.5*%
%ADD36C,0.04724*%
%ADD37C,0.11810*%
%ADD38R,0.07874X0.07874*%
%ADD39C,0.05000*%
%ADD40C,0.63000*%
%ADD41R,0.10000X0.20000*%
%ADD42C,0.02362*%
%ADD43C,0.00984*%
%ADD44C,0.00787*%
%ADD45C,0.01000*%
%ADD46C,0.00787*%
%ADD47C,0.00800*%
%ADD48R,0.11024X0.03150*%
%ADD49R,0.03150X0.11024*%
%ADD50R,0.06706X0.06312*%
%ADD51O,0.03556X0.09855*%
%ADD52R,0.06509X0.03162*%
%ADD53R,0.05131X0.06312*%
%ADD54R,0.04737X0.05918*%
%ADD55R,0.06312X0.05131*%
%ADD56O,0.03162X0.09855*%
%ADD57R,0.06706X0.11824*%
%ADD58R,0.11824X0.06706*%
%ADD59R,0.05918X0.04737*%
%ADD60R,0.06312X0.06706*%
%ADD61R,0.06706X0.06706*%
%ADD62O,0.09461X0.03162*%
%ADD63R,0.06902X0.14383*%
%ADD64R,0.06902X0.05131*%
%ADD65R,0.06902X0.05131*%
%ADD66C,0.05524*%
%ADD67O,0.07887X0.11430*%
%ADD68O,0.11430X0.07887*%
%ADD69C,0.06706*%
%ADD70R,0.06706X0.06706*%
%ADD71C,0.08674*%
%ADD72R,0.08674X0.08674*%
%ADD73C,0.06312*%
%ADD74P,0.06832X8X202.5*%
%ADD75C,0.05524*%
%ADD76C,0.12610*%
%ADD77R,0.08674X0.08674*%
%ADD78C,0.05800*%
%ADD79C,0.63800*%
%ADD80R,0.10800X0.20800*%
%ADD81C,0.00003*%
%ADD82C,0.03937*%
%ADD83C,0.00394*%
%ADD84C,0.07937*%
D81*
X288000Y402153D02*
Y402132D01*
X287989D01*
X287986Y402135D01*
Y402139D01*
X287989Y402142D01*
X288000D01*
X287989D01*
X287986Y402146D01*
Y402149D01*
X287989Y402153D01*
X288000D01*
X287979D02*
X287965D01*
X287972D01*
Y402132D01*
X287958D02*
X287950D01*
X287954D01*
Y402153D01*
X287958Y402149D01*
X288000Y402108D02*
Y402087D01*
X287989D01*
X287986Y402090D01*
Y402094D01*
X287989Y402097D01*
X288000D01*
X287989D01*
X287986Y402101D01*
Y402104D01*
X287989Y402108D01*
X288000D01*
X287975Y402101D02*
X287968D01*
X287965Y402097D01*
Y402087D01*
X287975D01*
X287979Y402090D01*
X287975Y402094D01*
X287965D01*
X287954Y402104D02*
Y402101D01*
X287958D01*
X287950D01*
X287954D01*
Y402090D01*
X287950Y402087D01*
X287936Y402104D02*
Y402101D01*
X287940D01*
X287933D01*
X287936D01*
Y402090D01*
X287933Y402087D01*
X287912D02*
X287919D01*
X287922Y402090D01*
Y402097D01*
X287919Y402101D01*
X287912D01*
X287908Y402097D01*
Y402094D01*
X287922D01*
X287901Y402101D02*
Y402087D01*
Y402094D01*
X287897Y402097D01*
X287894Y402101D01*
X287890D01*
X287880D02*
Y402090D01*
X287876Y402087D01*
X287865D01*
Y402083D01*
X287869Y402080D01*
X287873D01*
X287865Y402087D02*
Y402101D01*
X287986Y402061D02*
X287989Y402065D01*
X287997D01*
X288000Y402061D01*
Y402047D01*
X287997Y402043D01*
X287989D01*
X287986Y402047D01*
X287968Y402065D02*
X287975D01*
X287979Y402061D01*
Y402047D01*
X287975Y402043D01*
X287968D01*
X287965Y402047D01*
Y402061D01*
X287968Y402065D01*
X287958Y402043D02*
Y402065D01*
X287943Y402043D01*
Y402065D01*
X287922Y402043D02*
X287936D01*
X287922Y402058D01*
Y402061D01*
X287926Y402065D01*
X287933D01*
X287936Y402061D01*
X287915Y402040D02*
X287901D01*
X287894Y402061D02*
X287890Y402065D01*
X287883D01*
X287880Y402061D01*
Y402047D01*
X287883Y402043D01*
X287890D01*
X287894Y402047D01*
Y402061D01*
X287986Y402018D02*
X287989Y402021D01*
X287997D01*
X288000Y402018D01*
Y402003D01*
X287997Y402000D01*
X287989D01*
X287986Y402003D01*
X287979Y402000D02*
Y402021D01*
X287968D01*
X287965Y402018D01*
Y402011D01*
X287968Y402007D01*
X287979D01*
X287972D02*
X287965Y402000D01*
X287943D02*
X287958D01*
X287943Y402014D01*
Y402018D01*
X287947Y402021D01*
X287954D01*
X287958Y402018D01*
X287936D02*
X287933Y402021D01*
X287926D01*
X287922Y402018D01*
Y402003D01*
X287926Y402000D01*
X287933D01*
X287936Y402003D01*
Y402018D01*
X287915D02*
X287912Y402021D01*
X287904D01*
X287901Y402018D01*
Y402014D01*
X287904Y402011D01*
X287908D01*
X287904D01*
X287901Y402007D01*
Y402003D01*
X287904Y402000D01*
X287912D01*
X287915Y402003D01*
X287880Y402000D02*
X287894D01*
X287880Y402014D01*
Y402018D01*
X287883Y402021D01*
X287890D01*
X287894Y402018D01*
D84*
X149992Y266354D02*
Y269898D01*
X137331Y303020D02*
X140874D01*
X130429Y294118D02*
X133972D01*
X106228Y282457D02*
Y286000D01*
X118457Y266000D02*
X122000D01*
X118256Y319882D02*
X121799D01*
X106028Y336339D02*
Y339882D01*
X130228Y348000D02*
X133772D01*
X137130Y356902D02*
X140673D01*
X149791Y320236D02*
Y323780D01*
M02*
