%FSLAX25Y25*%
%MOIN*%
G70*
G01*
G75*
G04 Layer_Physical_Order=1*
G04 Layer_Color=255*
%ADD10R,0.05906X0.05512*%
%ADD11O,0.02756X0.09055*%
%ADD12R,0.05709X0.02362*%
%ADD13R,0.04331X0.05512*%
%ADD14R,0.03937X0.05118*%
%ADD15R,0.05512X0.04331*%
%ADD16O,0.02362X0.09055*%
%ADD17R,0.05906X0.11024*%
%ADD18R,0.11024X0.05906*%
%ADD19R,0.05118X0.03937*%
%ADD20R,0.05512X0.05906*%
%ADD21R,0.05906X0.05906*%
%ADD22O,0.08661X0.02362*%
%ADD23R,0.06102X0.13583*%
%ADD24R,0.06102X0.04331*%
%ADD25R,0.06102X0.04331*%
%ADD26C,0.01200*%
%ADD27C,0.04724*%
%ADD28O,0.07087X0.10630*%
%ADD29O,0.10630X0.07087*%
%ADD30C,0.05906*%
%ADD31R,0.05906X0.05906*%
%ADD32C,0.07874*%
%ADD33R,0.07874X0.07874*%
%ADD34C,0.05512*%
%ADD35P,0.05966X8X202.5*%
%ADD36C,0.04724*%
%ADD37C,0.11810*%
%ADD38R,0.07874X0.07874*%
%ADD39C,0.05000*%
G36*
X205292Y321727D02*
X206357Y321286D01*
X207500Y321135D01*
X208493Y321266D01*
X208869Y320936D01*
Y311831D01*
X204846D01*
X204623Y312123D01*
X203474Y313004D01*
X202136Y313558D01*
X201382Y313658D01*
X201358Y313836D01*
X201131Y314385D01*
Y320936D01*
X201507Y321266D01*
X202500Y321135D01*
X203643Y321286D01*
X204708Y321727D01*
X205000Y321951D01*
X205292Y321727D01*
D02*
G37*
G36*
X333769Y328141D02*
Y312346D01*
X323989D01*
X320131Y316204D01*
Y318431D01*
X320152Y318458D01*
X320573Y319476D01*
X320717Y320567D01*
Y326669D01*
X330140D01*
X331079Y326793D01*
X331955Y327155D01*
X332707Y327732D01*
X332707Y327732D01*
X332707Y327732D01*
X333307Y328332D01*
X333769Y328141D01*
D02*
G37*
G36*
X170244Y339882D02*
Y339882D01*
X170244Y339882D01*
X171882D01*
Y330441D01*
X173434D01*
X173706Y329784D01*
X174283Y329032D01*
X175035Y328455D01*
X175911Y328093D01*
X176850Y327969D01*
X186250D01*
X187190Y328093D01*
X187669Y328291D01*
X188084Y328013D01*
Y325551D01*
X188235Y324408D01*
X188676Y323343D01*
X188869Y323092D01*
Y319105D01*
X183405Y313642D01*
X182943Y313833D01*
Y318900D01*
X182819Y319840D01*
X182457Y320715D01*
X181879Y321467D01*
X181128Y322045D01*
X180252Y322407D01*
X179312Y322531D01*
X170825D01*
X170496Y322907D01*
X170547Y323300D01*
X170358Y324736D01*
X169804Y326074D01*
X168923Y327223D01*
X167774Y328104D01*
X167756Y328112D01*
Y331787D01*
Y337999D01*
X168615Y338355D01*
X169368Y338932D01*
X169945Y339685D01*
X170036Y339906D01*
X170043Y339922D01*
X170244Y339882D01*
D02*
G37*
G36*
X273813Y316888D02*
X273933Y316733D01*
X276711Y313954D01*
X276842Y312964D01*
X276932Y312747D01*
X276654Y312331D01*
X265869D01*
X265678Y312793D01*
X269068Y316182D01*
X269572Y316840D01*
X270409Y316494D01*
X271500Y316350D01*
X272591Y316494D01*
X273609Y316915D01*
X273813Y316888D01*
D02*
G37*
G36*
X375500Y339367D02*
X375015Y339246D01*
X374974Y339323D01*
X374230Y340230D01*
X373631Y340721D01*
Y358000D01*
X373507Y358940D01*
X373145Y359816D01*
X372745Y360337D01*
X372837Y360640D01*
X372921Y361500D01*
X366500D01*
Y355079D01*
X366000Y355029D01*
X366369Y354695D01*
Y344219D01*
X365907Y344028D01*
X363168Y346767D01*
X362416Y347345D01*
X361540Y347707D01*
X360600Y347831D01*
X339000D01*
X339000Y347831D01*
X338060Y347707D01*
X337441Y347451D01*
X337295Y347391D01*
X336866Y347648D01*
X336837Y347951D01*
X336440Y349258D01*
X335796Y350463D01*
X334929Y351519D01*
X333873Y352386D01*
X333493Y352590D01*
X333419Y353084D01*
X337368Y357032D01*
X337945Y357785D01*
X338034Y358000D01*
X338053Y358047D01*
X345953D01*
Y369953D01*
X338431D01*
Y370000D01*
X338307Y370940D01*
X337945Y371815D01*
X337368Y372568D01*
X328568Y381367D01*
X327816Y381945D01*
X326940Y382307D01*
X326000Y382431D01*
X256800D01*
X256800Y382431D01*
X255860Y382307D01*
X255347Y382095D01*
X254984Y381945D01*
X254233Y381367D01*
X254232Y381367D01*
X252771Y379906D01*
X252000Y379982D01*
X250833Y379867D01*
X249711Y379526D01*
X248677Y378974D01*
X248405Y378750D01*
X247953Y378964D01*
Y379953D01*
X245631D01*
Y415600D01*
X245507Y416540D01*
X245145Y417416D01*
X244567Y418168D01*
X232768Y429968D01*
X232015Y430545D01*
X231140Y430907D01*
X230200Y431031D01*
X210055D01*
Y436512D01*
X204602D01*
Y427999D01*
X203602D01*
Y436512D01*
X198150D01*
D01*
D01*
X198150Y436512D01*
X197850D01*
Y436512D01*
X185945D01*
Y432596D01*
X185529Y432318D01*
X184940Y432562D01*
X184000Y432686D01*
X183339D01*
Y434221D01*
X181131D01*
Y437063D01*
X187528D01*
Y449500D01*
X375500D01*
Y339367D01*
D02*
G37*
G36*
X146306Y352709D02*
Y348763D01*
X146430Y347823D01*
X146792Y346948D01*
X147370Y346195D01*
X152519Y341046D01*
X152328Y340584D01*
X150051D01*
X140566Y350069D01*
X140673Y350327D01*
X141956Y350453D01*
X143189Y350827D01*
X144326Y351435D01*
X145322Y352252D01*
X145835Y352877D01*
X146306Y352709D01*
D02*
G37*
G36*
X355678Y340117D02*
X355027Y339323D01*
X354474Y338289D01*
X354133Y337167D01*
X354068Y336500D01*
X360001D01*
Y335500D01*
X354068D01*
X354133Y334833D01*
X354474Y333711D01*
X355027Y332677D01*
X355770Y331770D01*
X356369Y331279D01*
Y330721D01*
X355770Y330230D01*
X355617Y330042D01*
X355117Y330018D01*
X349906Y335229D01*
X349982Y336000D01*
X349867Y337167D01*
X349526Y338289D01*
X348973Y339323D01*
X348230Y340230D01*
X348351Y340569D01*
X355464D01*
X355678Y340117D01*
D02*
G37*
G36*
X292869Y337196D02*
Y331676D01*
X292493Y331346D01*
X291500Y331477D01*
X290408Y331333D01*
X289391Y330912D01*
X289000Y330612D01*
X288609Y330912D01*
X287592Y331333D01*
X286500Y331477D01*
X285507Y331346D01*
X285131Y331676D01*
Y333182D01*
X285507Y333511D01*
X286394Y333394D01*
X287896Y333592D01*
X289297Y334172D01*
X290499Y335095D01*
X291422Y336297D01*
X291936Y337540D01*
X292427Y337638D01*
X292869Y337196D01*
D02*
G37*
G36*
X334833Y270033D02*
X338047Y266818D01*
Y260047D01*
D01*
Y260047D01*
X338000Y260000D01*
X330433D01*
X330426Y260022D01*
X330310Y260485D01*
X331323Y261027D01*
X332230Y261770D01*
X332974Y262677D01*
X333526Y263711D01*
X333867Y264833D01*
X333932Y265500D01*
X327999D01*
Y266500D01*
X333932D01*
X333867Y267167D01*
X333526Y268289D01*
X332974Y269323D01*
X332750Y269595D01*
X332964Y270047D01*
X333953D01*
Y270401D01*
X334426Y270562D01*
X334833Y270033D01*
D02*
G37*
G36*
X248518Y281758D02*
X249391Y281088D01*
X250409Y280667D01*
X251500Y280523D01*
X252591Y280667D01*
X253609Y281088D01*
X254000Y281388D01*
X254391Y281088D01*
X255409Y280667D01*
X256500Y280523D01*
X257592Y280667D01*
X258609Y281088D01*
X259000Y281388D01*
X259391Y281088D01*
X260408Y280667D01*
X261500Y280523D01*
X262592Y280667D01*
X263609Y281088D01*
X264000Y281388D01*
X264391Y281088D01*
X265408Y280667D01*
X266500Y280523D01*
X267493Y280654D01*
X267869Y280324D01*
Y279302D01*
X267079Y278512D01*
X264398D01*
Y269999D01*
X263398D01*
Y278512D01*
X257945D01*
Y274127D01*
X258100Y274148D01*
X258600Y274082D01*
Y268599D01*
X257600D01*
Y274082D01*
X256664Y273958D01*
X256172Y273754D01*
X255756Y274032D01*
Y278118D01*
X247631D01*
Y282136D01*
X248105Y282297D01*
X248518Y281758D01*
D02*
G37*
G36*
X144525Y262702D02*
X145343Y261705D01*
X146339Y260887D01*
X147092Y260485D01*
X146971Y260000D01*
X125684D01*
X125563Y260485D01*
X125653Y260533D01*
X126649Y261351D01*
X127467Y262347D01*
X127853Y263069D01*
X144329D01*
X144525Y262702D01*
D02*
G37*
G36*
X354094Y266771D02*
X354018Y266000D01*
X354133Y264833D01*
X354474Y263711D01*
X355027Y262677D01*
X355770Y261770D01*
X356677Y261027D01*
X357690Y260485D01*
X357574Y260022D01*
X357567Y260000D01*
X349953D01*
Y260047D01*
X349953D01*
Y270259D01*
X350415Y270450D01*
X354094Y266771D01*
D02*
G37*
G36*
X311500Y316350D02*
X312493Y316480D01*
X312869Y316151D01*
Y314700D01*
X312993Y313760D01*
X313355Y312884D01*
X313932Y312133D01*
X318669Y307396D01*
Y295510D01*
X318253Y295233D01*
X317592Y295507D01*
X316500Y295650D01*
X315408Y295507D01*
X314689Y295209D01*
X314645Y295316D01*
X314068Y296068D01*
X310785Y299350D01*
X311304Y300026D01*
X311858Y301364D01*
X312048Y302800D01*
X311858Y304236D01*
X311304Y305574D01*
X310423Y306723D01*
X310131Y306946D01*
Y316151D01*
X310507Y316480D01*
X311500Y316350D01*
D02*
G37*
G36*
X190918Y310297D02*
X191196Y309626D01*
X192077Y308477D01*
X193226Y307596D01*
X194564Y307042D01*
X195318Y306942D01*
X195342Y306764D01*
X195896Y305426D01*
X196777Y304277D01*
X197926Y303396D01*
X199264Y302842D01*
X199610Y302796D01*
X199860Y302363D01*
X199642Y301836D01*
X199460Y300459D01*
X198987Y300298D01*
X198818Y300467D01*
X198065Y301045D01*
X197190Y301407D01*
X196250Y301531D01*
X184300D01*
X183360Y301407D01*
X182484Y301045D01*
X181946Y300631D01*
X181318D01*
X181127Y301093D01*
X190428Y310394D01*
X190918Y310297D01*
D02*
G37*
G36*
X188084Y292131D02*
X187352D01*
X186413Y292007D01*
X185537Y291645D01*
X184785Y291068D01*
X180974Y287256D01*
X180512Y287448D01*
Y293369D01*
X183400D01*
X184340Y293493D01*
X185215Y293855D01*
X185755Y294269D01*
X188084D01*
Y292131D01*
D02*
G37*
G36*
X100561Y332686D02*
X101378Y331689D01*
X102375Y330872D01*
X102397Y330860D01*
Y292044D01*
X102483Y291391D01*
X101579Y290649D01*
X100761Y289653D01*
X100485Y289136D01*
X100000Y289257D01*
Y332706D01*
X100485Y332827D01*
X100561Y332686D01*
D02*
G37*
G36*
X224369Y399087D02*
Y376346D01*
X211063D01*
Y362472D01*
X215787D01*
X216064Y362057D01*
X215642Y361036D01*
X215518Y360100D01*
X221001D01*
Y359100D01*
X215518D01*
X215606Y358431D01*
X215277Y358055D01*
X214500D01*
Y352101D01*
X213500D01*
Y358055D01*
X198500D01*
Y352101D01*
X197500D01*
Y358055D01*
X189488D01*
Y356118D01*
X184500D01*
Y350952D01*
X183500D01*
Y356118D01*
X179066D01*
X178568Y356768D01*
X175750Y359585D01*
X175941Y360047D01*
X183063D01*
Y360197D01*
X183439Y360526D01*
X184000Y360453D01*
X184561Y360526D01*
X184937Y360197D01*
Y360047D01*
X196843D01*
Y366818D01*
X198442Y368417D01*
X198442Y368417D01*
X199019Y369169D01*
X199381Y370044D01*
X199495Y370911D01*
X201630D01*
Y381577D01*
Y393483D01*
X199208D01*
X199019Y393941D01*
X198442Y394694D01*
X195953Y397182D01*
Y400069D01*
X211109D01*
X212049Y400193D01*
X212925Y400555D01*
X213677Y401132D01*
X216378Y403833D01*
X216640Y403754D01*
X218000Y403620D01*
X219360Y403754D01*
X219622Y403833D01*
X224369Y399087D01*
D02*
G37*
G36*
X141186Y402179D02*
X140994Y401717D01*
X139402D01*
X138310Y401574D01*
X137293Y401152D01*
X136420Y400482D01*
X135749Y399609D01*
X135328Y398591D01*
X135184Y397500D01*
X135315Y396507D01*
X134985Y396131D01*
X127004D01*
X124335Y398800D01*
X124776Y400254D01*
X124948Y402000D01*
X124776Y403746D01*
X124267Y405424D01*
X124098Y405740D01*
X124355Y406169D01*
X137196D01*
X141186Y402179D01*
D02*
G37*
G36*
X329298Y370367D02*
X329130Y369896D01*
X328833Y369867D01*
X327769Y369544D01*
X327367Y370068D01*
X326067Y371368D01*
X325315Y371945D01*
X324440Y372307D01*
X323500Y372431D01*
X314800D01*
X314800Y372431D01*
X313860Y372307D01*
X313347Y372095D01*
X312984Y371945D01*
X312232Y371368D01*
X312232Y371368D01*
X310771Y369906D01*
X310000Y369982D01*
X308833Y369867D01*
X307711Y369526D01*
X306677Y368973D01*
X305770Y368230D01*
X305250Y367596D01*
X304750D01*
X304230Y368230D01*
X303323Y368973D01*
X302289Y369526D01*
X301167Y369867D01*
X300000Y369982D01*
X298833Y369867D01*
X297711Y369526D01*
X296677Y368973D01*
X295770Y368230D01*
X295250Y367596D01*
X294750D01*
X294230Y368230D01*
X293323Y368973D01*
X292289Y369526D01*
X291167Y369867D01*
X290000Y369982D01*
X288833Y369867D01*
X287711Y369526D01*
X286677Y368973D01*
X285770Y368230D01*
X285027Y367323D01*
X284474Y366289D01*
X284133Y365167D01*
X284018Y364000D01*
X284133Y362833D01*
X284474Y361711D01*
X284558Y361554D01*
X284222Y361183D01*
X283440Y361507D01*
X282500Y361631D01*
X274000D01*
X273060Y361507D01*
X272184Y361145D01*
X271432Y360567D01*
X269933Y359068D01*
X269355Y358315D01*
X269108Y357718D01*
X266500D01*
Y352552D01*
X265500D01*
Y357718D01*
X261631D01*
Y362000D01*
X261631Y362000D01*
X261507Y362940D01*
X261295Y363453D01*
X261145Y363815D01*
X260567Y364567D01*
X260567Y364568D01*
X256018Y369117D01*
X256042Y369617D01*
X256230Y369770D01*
X256750Y370405D01*
X257250D01*
X257770Y369770D01*
X258677Y369026D01*
X259711Y368474D01*
X260833Y368133D01*
X262000Y368018D01*
X263167Y368133D01*
X264289Y368474D01*
X265323Y369026D01*
X266230Y369770D01*
X266973Y370677D01*
X267526Y371711D01*
X267867Y372833D01*
X267982Y374000D01*
X267867Y375167D01*
X267868Y375169D01*
X324496D01*
X329298Y370367D01*
D02*
G37*
G36*
X171236Y423890D02*
Y423631D01*
X159982D01*
X156764Y423787D01*
Y426369D01*
X171236D01*
Y423890D01*
D02*
G37*
G36*
X159719Y416373D02*
X159807Y416381D01*
X159894Y416369D01*
X166681D01*
X166872Y415907D01*
X164596Y413631D01*
X156764D01*
Y416154D01*
X157126Y416499D01*
X159719Y416373D01*
D02*
G37*
G36*
X133472Y413893D02*
X133281Y413431D01*
X122714D01*
X122500Y413883D01*
X123440Y415029D01*
X124156Y416369D01*
X130996D01*
X133472Y413893D01*
D02*
G37*
G36*
X157208Y378427D02*
X158299Y378283D01*
X162369D01*
Y370146D01*
X162077Y369923D01*
X161196Y368774D01*
X160642Y367436D01*
X160452Y366000D01*
X160642Y364564D01*
X161196Y363226D01*
X162077Y362077D01*
X163226Y361196D01*
X164564Y360642D01*
X166000Y360453D01*
X166293Y360491D01*
X166533Y360281D01*
X166565Y359782D01*
X166487Y359693D01*
X159531D01*
Y373619D01*
X159407Y374559D01*
X159045Y375434D01*
X158468Y376186D01*
X156440Y378214D01*
X156718Y378629D01*
X157208Y378427D01*
D02*
G37*
G36*
X254369Y360496D02*
Y356584D01*
X252500D01*
X251560Y356460D01*
X250684Y356097D01*
X249933Y355520D01*
X249932Y355520D01*
X242333Y347920D01*
X241755Y347168D01*
X241634Y346874D01*
X241151Y346745D01*
X241074Y346804D01*
X239736Y347358D01*
X238300Y347548D01*
X236864Y347358D01*
X235526Y346804D01*
X234401Y345941D01*
X234268Y346007D01*
X233953Y346249D01*
Y354952D01*
X234354Y355250D01*
X234640Y355163D01*
X236000Y355029D01*
X237360Y355163D01*
X238667Y355560D01*
X239873Y356204D01*
X240929Y357071D01*
X241071D01*
X242127Y356204D01*
X243333Y355560D01*
X244640Y355163D01*
X246000Y355029D01*
X247360Y355163D01*
X248668Y355560D01*
X249873Y356204D01*
X250929Y357071D01*
X251796Y358127D01*
X252440Y359332D01*
X252837Y360640D01*
X252904Y361322D01*
X253375Y361490D01*
X254369Y360496D01*
D02*
G37*
G36*
X238369Y414096D02*
Y379953D01*
X236047D01*
Y374500D01*
X242001D01*
Y373500D01*
X236047D01*
Y369013D01*
X236000Y368971D01*
X234640Y368837D01*
X233332Y368440D01*
X232127Y367796D01*
X232083Y367759D01*
X231631Y367973D01*
Y400591D01*
X231631Y400591D01*
X231507Y401530D01*
X231295Y402043D01*
X231145Y402406D01*
X230568Y403158D01*
X230568Y403158D01*
X224757Y408969D01*
X224837Y409231D01*
X224971Y410591D01*
X224837Y411950D01*
X224440Y413258D01*
X223796Y414463D01*
X222929Y415520D01*
X221873Y416386D01*
X220668Y417031D01*
X219360Y417427D01*
X218000Y417561D01*
X216640Y417427D01*
X215333Y417031D01*
X214127Y416386D01*
X213071Y415520D01*
X212204Y414463D01*
X211560Y413258D01*
X211163Y411950D01*
X211029Y410591D01*
X211163Y409231D01*
X211243Y408969D01*
X210517Y408243D01*
X210055Y408434D01*
Y411500D01*
X204101D01*
Y412500D01*
X210055D01*
Y419488D01*
Y423769D01*
X228696D01*
X238369Y414096D01*
D02*
G37*
G36*
X173654Y437063D02*
X173869D01*
Y434221D01*
X171236D01*
Y433631D01*
X148300D01*
X148300Y433631D01*
X147360Y433507D01*
X146741Y433251D01*
X146484Y433145D01*
X145732Y432568D01*
X141432Y428268D01*
X140855Y427516D01*
X140493Y426640D01*
X140369Y425700D01*
Y417919D01*
X139907Y417728D01*
X135068Y422568D01*
X134316Y423145D01*
X133440Y423507D01*
X132500Y423631D01*
X124156D01*
X123440Y424971D01*
X122327Y426327D01*
X120971Y427440D01*
X119424Y428267D01*
X117746Y428776D01*
X116500Y428899D01*
Y419999D01*
X116001D01*
Y419500D01*
X107101D01*
X107224Y418254D01*
X107733Y416576D01*
X108560Y415029D01*
X109673Y413673D01*
X110309Y413150D01*
X110301Y412650D01*
X109932Y412368D01*
X105632Y408068D01*
X105055Y407315D01*
X104693Y406440D01*
X104569Y405500D01*
Y389800D01*
X104693Y388860D01*
X105055Y387984D01*
X105632Y387232D01*
X105632Y387232D01*
X105632Y387232D01*
X105632Y387232D01*
Y387232D01*
X107665Y385200D01*
X107224Y383746D01*
X107052Y382000D01*
X107224Y380254D01*
X107733Y378576D01*
X108560Y377029D01*
X109673Y375673D01*
X111029Y374560D01*
X112576Y373733D01*
X114254Y373224D01*
X116000Y373052D01*
X117746Y373224D01*
X119424Y373733D01*
X120971Y374560D01*
X122327Y375673D01*
X123440Y377029D01*
X124267Y378576D01*
X124776Y380254D01*
X124948Y382000D01*
X124776Y383746D01*
X124267Y385424D01*
X123440Y386971D01*
X122327Y388327D01*
X120971Y389440D01*
X119424Y390267D01*
X117746Y390776D01*
X116000Y390948D01*
X114254Y390776D01*
X112800Y390335D01*
X111831Y391304D01*
Y393645D01*
X112260Y393902D01*
X112576Y393733D01*
X114254Y393224D01*
X116000Y393052D01*
X117746Y393224D01*
X119200Y393665D01*
X122932Y389932D01*
X122932Y389932D01*
X122932D01*
X122932Y389932D01*
X122932D01*
X122933Y389932D01*
Y389932D01*
Y389932D01*
D01*
D01*
X122933D01*
Y389932D01*
X123685Y389355D01*
X123941Y389249D01*
X124560Y388993D01*
X125500Y388869D01*
X130389D01*
Y380135D01*
X130372Y380000D01*
X130369Y379980D01*
Y375000D01*
X130493Y374060D01*
X130855Y373184D01*
X131432Y372432D01*
X136307Y367558D01*
Y364047D01*
X146306D01*
Y361094D01*
X145835Y360926D01*
X145322Y361551D01*
X144326Y362368D01*
X143189Y362976D01*
X141956Y363350D01*
X140673Y363476D01*
X137130D01*
X135847Y363350D01*
X134614Y362976D01*
X133477Y362368D01*
X132481Y361551D01*
X131663Y360554D01*
X131055Y359418D01*
X130681Y358184D01*
X130555Y356902D01*
X130681Y355619D01*
X130876Y354977D01*
X130578Y354575D01*
X130228D01*
X128946Y354449D01*
X127712Y354075D01*
X126576Y353467D01*
X125579Y352649D01*
X124761Y351653D01*
X124154Y350516D01*
X123780Y349283D01*
X123653Y348000D01*
X123780Y346717D01*
X124154Y345484D01*
X124761Y344347D01*
X125579Y343351D01*
X126576Y342533D01*
X127712Y341926D01*
X128946Y341551D01*
X130228Y341425D01*
X133772D01*
X135054Y341551D01*
X136288Y341926D01*
X137425Y342533D01*
X137648Y342717D01*
X145980Y334385D01*
X146732Y333808D01*
X147607Y333446D01*
X148547Y333322D01*
X156244D01*
Y331787D01*
Y326617D01*
X155759Y326495D01*
X155258Y327432D01*
X154440Y328429D01*
X153444Y329246D01*
X152307Y329854D01*
X151074Y330228D01*
X149791Y330354D01*
X148509Y330228D01*
X147275Y329854D01*
X146139Y329246D01*
X145142Y328429D01*
X144325Y327432D01*
X143717Y326296D01*
X143343Y325062D01*
X143216Y323780D01*
Y320236D01*
X143343Y318953D01*
X143717Y317720D01*
X144325Y316583D01*
X145142Y315587D01*
X146139Y314769D01*
X147275Y314162D01*
X148509Y313788D01*
X149791Y313661D01*
X151074Y313788D01*
X152307Y314162D01*
X153444Y314769D01*
X154053Y315269D01*
X160378D01*
X160570Y314807D01*
X157232Y311470D01*
X156655Y310718D01*
X156407Y310118D01*
X154244D01*
Y303819D01*
Y303364D01*
X153782Y303172D01*
X151368Y305587D01*
X150616Y306164D01*
X149740Y306527D01*
X148800Y306651D01*
X146353D01*
X146341Y306673D01*
X145523Y307669D01*
X144527Y308487D01*
X143390Y309094D01*
X142157Y309468D01*
X140874Y309595D01*
X137331D01*
X136048Y309468D01*
X134815Y309094D01*
X133678Y308487D01*
X132682Y307669D01*
X131864Y306673D01*
X131256Y305536D01*
X130882Y304302D01*
X130756Y303020D01*
X130882Y301737D01*
X131077Y301095D01*
X130779Y300693D01*
X130429D01*
X129146Y300567D01*
X127913Y300193D01*
X126776Y299585D01*
X125780Y298767D01*
X124962Y297771D01*
X124355Y296634D01*
X123980Y295401D01*
X123854Y294118D01*
X123980Y292835D01*
X124355Y291602D01*
X124962Y290465D01*
X125780Y289469D01*
X126776Y288651D01*
X127913Y288044D01*
X129146Y287669D01*
X130429Y287543D01*
X133973D01*
X135255Y287669D01*
X136489Y288044D01*
X137625Y288651D01*
X138622Y289469D01*
X139439Y290465D01*
X140047Y291602D01*
X140421Y292835D01*
X140547Y294118D01*
X140421Y295401D01*
X140414Y295425D01*
X141495Y296506D01*
X142157Y296571D01*
X143390Y296945D01*
X144527Y297553D01*
X145523Y298371D01*
X146341Y299367D01*
X146353Y299389D01*
X147296D01*
X150402Y296283D01*
X150402Y296283D01*
X150402D01*
X150402Y296283D01*
X150402D01*
X150402Y296283D01*
Y296283D01*
Y296283D01*
D01*
D01*
X150402D01*
Y296283D01*
X151154Y295706D01*
X151410Y295600D01*
X152029Y295343D01*
X152969Y295219D01*
X154244D01*
Y293882D01*
X158593D01*
X158785Y293420D01*
X157483Y292118D01*
X154244D01*
Y282181D01*
Y280879D01*
X149821Y276456D01*
X148709Y276346D01*
X147476Y275972D01*
X146339Y275364D01*
X145343Y274547D01*
X144525Y273551D01*
X143918Y272414D01*
X143544Y271180D01*
X143460Y270331D01*
X126910D01*
X126649Y270649D01*
X125653Y271467D01*
X124516Y272075D01*
X123283Y272449D01*
X122000Y272575D01*
X118457D01*
X117174Y272449D01*
X115941Y272075D01*
X114804Y271467D01*
X113807Y270649D01*
X112990Y269653D01*
X112382Y268516D01*
X112008Y267283D01*
X111882Y266000D01*
X112008Y264717D01*
X112382Y263484D01*
X112990Y262347D01*
X113807Y261351D01*
X114804Y260533D01*
X114894Y260485D01*
X114772Y260000D01*
X100500D01*
X100000Y260500D01*
Y279200D01*
X100485Y279321D01*
X100761Y278804D01*
X101579Y277807D01*
X102576Y276990D01*
X103712Y276382D01*
X104946Y276008D01*
X105728Y275931D01*
Y284229D01*
X106227D01*
Y284728D01*
X112803D01*
Y286000D01*
X112677Y287283D01*
X112303Y288516D01*
X111695Y289653D01*
X110878Y290649D01*
X109881Y291467D01*
X109860Y291478D01*
Y291843D01*
X109736Y292783D01*
X109659Y292969D01*
Y330860D01*
X109680Y330872D01*
X110677Y331689D01*
X111494Y332686D01*
X112102Y333822D01*
X112476Y335056D01*
X112602Y336339D01*
Y337610D01*
X106027D01*
Y338109D01*
X105528D01*
Y346408D01*
X104745Y346330D01*
X103511Y345956D01*
X102375Y345349D01*
X101378Y344531D01*
X100561Y343535D01*
X100485Y343393D01*
X100000Y343515D01*
Y449500D01*
X134434D01*
X134603Y449029D01*
X134481Y448929D01*
X133614Y447873D01*
X132969Y446667D01*
X132573Y445360D01*
X132439Y444000D01*
X132573Y442640D01*
X132969Y441332D01*
X133614Y440127D01*
X134481Y439071D01*
X135537Y438204D01*
X136742Y437560D01*
X138049Y437163D01*
X139409Y437029D01*
X140769Y437163D01*
X142077Y437560D01*
X143282Y438204D01*
X144338Y439071D01*
X145205Y440127D01*
X145849Y441332D01*
X146246Y442640D01*
X146380Y444000D01*
X146246Y445360D01*
X145849Y446667D01*
X145205Y447873D01*
X144338Y448929D01*
X144216Y449029D01*
X144385Y449500D01*
X173654D01*
Y437063D01*
D02*
G37*
%LPC*%
G36*
X112803Y283728D02*
X106728D01*
Y275931D01*
X107511Y276008D01*
X108745Y276382D01*
X109881Y276990D01*
X110878Y277807D01*
X111695Y278804D01*
X112303Y279941D01*
X112677Y281174D01*
X112803Y282457D01*
Y283728D01*
D02*
G37*
G36*
X366000Y448971D02*
X364640Y448837D01*
X363333Y448440D01*
X362127Y447796D01*
X361071Y446929D01*
X360929D01*
X359873Y447796D01*
X358667Y448440D01*
X357360Y448837D01*
X356000Y448971D01*
X354640Y448837D01*
X353332Y448440D01*
X352127Y447796D01*
X351071Y446929D01*
X350204Y445873D01*
X349560Y444667D01*
X349163Y443360D01*
X349029Y442000D01*
X349163Y440640D01*
X349560Y439332D01*
X350204Y438127D01*
X351071Y437071D01*
X352127Y436204D01*
X353332Y435560D01*
X354640Y435163D01*
X356000Y435029D01*
X357360Y435163D01*
X358667Y435560D01*
X359873Y436204D01*
X360929Y437071D01*
X361071D01*
X362127Y436204D01*
X363333Y435560D01*
X364640Y435163D01*
X366000Y435029D01*
X367360Y435163D01*
X368668Y435560D01*
X369873Y436204D01*
X370929Y437071D01*
X371796Y438127D01*
X372440Y439332D01*
X372837Y440640D01*
X372971Y442000D01*
X372837Y443360D01*
X372440Y444667D01*
X371796Y445873D01*
X370929Y446929D01*
X369873Y447796D01*
X368668Y448440D01*
X367360Y448837D01*
X366000Y448971D01*
D02*
G37*
G36*
X116000Y448948D02*
X114254Y448776D01*
X112576Y448267D01*
X111029Y447440D01*
X109673Y446327D01*
X108560Y444971D01*
X107733Y443424D01*
X107224Y441746D01*
X107052Y440000D01*
X107224Y438254D01*
X107733Y436576D01*
X108560Y435029D01*
X109673Y433673D01*
X111029Y432560D01*
X112576Y431733D01*
X114254Y431224D01*
X116000Y431052D01*
X117746Y431224D01*
X119424Y431733D01*
X120971Y432560D01*
X122327Y433673D01*
X123440Y435029D01*
X124267Y436576D01*
X124776Y438254D01*
X124948Y440000D01*
X124776Y441746D01*
X124267Y443424D01*
X123440Y444971D01*
X122327Y446327D01*
X120971Y447440D01*
X119424Y448267D01*
X117746Y448776D01*
X116000Y448948D01*
D02*
G37*
G36*
X246000Y448971D02*
X244640Y448837D01*
X243333Y448440D01*
X242127Y447796D01*
X241071Y446929D01*
X240929D01*
X239873Y447796D01*
X238667Y448440D01*
X237360Y448837D01*
X236000Y448971D01*
X234640Y448837D01*
X233332Y448440D01*
X232127Y447796D01*
X231071Y446929D01*
X230204Y445873D01*
X229560Y444667D01*
X229163Y443360D01*
X229029Y442000D01*
X229163Y440640D01*
X229560Y439332D01*
X230204Y438127D01*
X231071Y437071D01*
X232127Y436204D01*
X233332Y435560D01*
X234640Y435163D01*
X236000Y435029D01*
X237360Y435163D01*
X238667Y435560D01*
X239873Y436204D01*
X240929Y437071D01*
X241071D01*
X242127Y436204D01*
X243333Y435560D01*
X244640Y435163D01*
X246000Y435029D01*
X247360Y435163D01*
X248668Y435560D01*
X249873Y436204D01*
X250929Y437071D01*
X251796Y438127D01*
X252440Y439332D01*
X252837Y440640D01*
X252971Y442000D01*
X252837Y443360D01*
X252440Y444667D01*
X251796Y445873D01*
X250929Y446929D01*
X249873Y447796D01*
X248668Y448440D01*
X247360Y448837D01*
X246000Y448971D01*
D02*
G37*
G36*
X106528Y346408D02*
Y338610D01*
X112602D01*
Y339882D01*
X112476Y341165D01*
X112102Y342398D01*
X111494Y343535D01*
X110677Y344531D01*
X109680Y345349D01*
X108544Y345956D01*
X107310Y346330D01*
X106528Y346408D01*
D02*
G37*
G36*
X356000Y368971D02*
X354640Y368837D01*
X353332Y368440D01*
X352127Y367796D01*
X351071Y366929D01*
X350204Y365873D01*
X349560Y364668D01*
X349163Y363360D01*
X349029Y362000D01*
X349163Y360640D01*
X349560Y359332D01*
X350204Y358127D01*
X351071Y357071D01*
X352127Y356204D01*
X353332Y355560D01*
X354640Y355163D01*
X356000Y355029D01*
X357360Y355163D01*
X358667Y355560D01*
X359873Y356204D01*
X360929Y357071D01*
X361071D01*
X362127Y356204D01*
X363333Y355560D01*
X364640Y355163D01*
X365500Y355079D01*
Y361999D01*
Y368921D01*
X364640Y368837D01*
X363333Y368440D01*
X362127Y367796D01*
X361071Y366929D01*
X360929D01*
X359873Y367796D01*
X358667Y368440D01*
X357360Y368837D01*
X356000Y368971D01*
D02*
G37*
G36*
X366500Y368921D02*
Y362500D01*
X372921D01*
X372837Y363360D01*
X372440Y364668D01*
X371796Y365873D01*
X370929Y366929D01*
X369873Y367796D01*
X368668Y368440D01*
X367360Y368837D01*
X366500Y368921D01*
D02*
G37*
G36*
X115500Y428899D02*
X114254Y428776D01*
X112576Y428267D01*
X111029Y427440D01*
X109673Y426327D01*
X108560Y424971D01*
X107733Y423424D01*
X107224Y421746D01*
X107101Y420500D01*
X115500D01*
Y428899D01*
D02*
G37*
G36*
X121799Y326457D02*
X118256D01*
X116973Y326330D01*
X115740Y325956D01*
X114603Y325349D01*
X113607Y324531D01*
X112789Y323535D01*
X112181Y322398D01*
X111807Y321165D01*
X111681Y319882D01*
X111807Y318599D01*
X112181Y317366D01*
X112789Y316229D01*
X113607Y315233D01*
X114603Y314415D01*
X115740Y313807D01*
X116973Y313433D01*
X118256Y313307D01*
X121799D01*
X123082Y313433D01*
X124315Y313807D01*
X125452Y314415D01*
X126448Y315233D01*
X127266Y316229D01*
X127874Y317366D01*
X128248Y318599D01*
X128374Y319882D01*
X128248Y321165D01*
X127874Y322398D01*
X127266Y323535D01*
X126448Y324531D01*
X125452Y325349D01*
X124315Y325956D01*
X123082Y326330D01*
X121799Y326457D01*
D02*
G37*
%LPD*%
D10*
X162000Y346063D02*
D03*
Y353937D02*
D03*
X228000Y349874D02*
D03*
Y342000D02*
D03*
X238000Y322063D02*
D03*
Y329937D02*
D03*
Y286000D02*
D03*
Y293874D02*
D03*
D11*
X227500Y328701D02*
D03*
X222500D02*
D03*
X217500D02*
D03*
X212500D02*
D03*
X207500D02*
D03*
X202500D02*
D03*
X197500D02*
D03*
X192500D02*
D03*
X227500Y291299D02*
D03*
X222500D02*
D03*
X217500D02*
D03*
X212500D02*
D03*
X207500D02*
D03*
X202500D02*
D03*
X197500D02*
D03*
X192500D02*
D03*
D12*
X316626Y268000D02*
D03*
X307374Y264260D02*
D03*
Y271740D02*
D03*
D13*
X291047Y264000D02*
D03*
X296953D02*
D03*
X308000Y352000D02*
D03*
X302094D02*
D03*
X279047D02*
D03*
X284953D02*
D03*
X190953Y278000D02*
D03*
X185047D02*
D03*
D14*
X297150Y274000D02*
D03*
X290850D02*
D03*
X324850Y294000D02*
D03*
X331150D02*
D03*
X176850Y336000D02*
D03*
X183150D02*
D03*
D15*
X266000Y346647D02*
D03*
Y352553D02*
D03*
Y339906D02*
D03*
Y334000D02*
D03*
X250000Y272953D02*
D03*
Y267047D02*
D03*
X184000Y345047D02*
D03*
Y350953D02*
D03*
X176000Y345047D02*
D03*
Y350953D02*
D03*
Y379047D02*
D03*
Y384953D02*
D03*
X240000Y305047D02*
D03*
Y310953D02*
D03*
X162000Y336953D02*
D03*
Y331047D02*
D03*
D16*
X316500Y323913D02*
D03*
X311500D02*
D03*
X306500D02*
D03*
X301500D02*
D03*
X296500D02*
D03*
X291500D02*
D03*
X286500D02*
D03*
X281500D02*
D03*
X276500D02*
D03*
X271500D02*
D03*
X266500D02*
D03*
X261500D02*
D03*
X256500D02*
D03*
X251500D02*
D03*
X316500Y288087D02*
D03*
X311500D02*
D03*
X306500D02*
D03*
X301500D02*
D03*
X296500D02*
D03*
X291500D02*
D03*
X286500D02*
D03*
X281500D02*
D03*
X276500D02*
D03*
X271500D02*
D03*
X266500D02*
D03*
X261500D02*
D03*
X256500D02*
D03*
X251500D02*
D03*
D17*
X263898Y270000D02*
D03*
X276102D02*
D03*
X225898D02*
D03*
X238102D02*
D03*
X216102D02*
D03*
X203898D02*
D03*
X204102Y428000D02*
D03*
X191898D02*
D03*
X204102Y412000D02*
D03*
X191898D02*
D03*
D18*
X172000Y292102D02*
D03*
Y279898D02*
D03*
Y314102D02*
D03*
Y301898D02*
D03*
X214000Y352102D02*
D03*
Y339898D02*
D03*
X198000Y352102D02*
D03*
Y339898D02*
D03*
D19*
X159803Y280850D02*
D03*
Y287150D02*
D03*
Y298850D02*
D03*
Y305150D02*
D03*
D20*
X188000Y376864D02*
D03*
X195874D02*
D03*
X188000Y387530D02*
D03*
X195874D02*
D03*
X142063Y370000D02*
D03*
X149937D02*
D03*
D21*
X177110Y366000D02*
D03*
X190890D02*
D03*
X176220Y398000D02*
D03*
X190000D02*
D03*
X162000Y268000D02*
D03*
X242000Y374000D02*
D03*
X340000Y364000D02*
D03*
D22*
X161449Y382500D02*
D03*
Y387500D02*
D03*
Y392500D02*
D03*
Y397500D02*
D03*
X142551Y382500D02*
D03*
Y387500D02*
D03*
Y392500D02*
D03*
Y397500D02*
D03*
D23*
X150713Y420000D02*
D03*
D24*
X177287Y429055D02*
D03*
Y420000D02*
D03*
D25*
Y410945D02*
D03*
D26*
X266000Y352953D02*
X272500D01*
X258000D02*
X266000D01*
X257526Y269174D02*
X258353Y270000D01*
X255400Y267047D02*
X257526Y269174D01*
X258100Y268600D02*
X263898D01*
X204102Y427400D02*
X230200D01*
X106028Y338110D02*
X106913Y337224D01*
X106028Y336339D02*
X106913Y337224D01*
X106228Y286000D02*
Y291843D01*
Y284228D02*
Y286000D01*
Y282457D02*
Y284228D01*
X322300Y294000D02*
Y308900D01*
X166000Y366000D02*
Y382500D01*
X318300Y268000D02*
Y275300D01*
X177287Y430000D02*
X177500D01*
X148300D02*
X177287D01*
X275800Y295100D02*
X277800D01*
X159800Y305150D02*
Y308902D01*
X244000Y262600D02*
X291047D01*
X230281Y306000D02*
X240000D01*
X184000Y346000D02*
X207000D01*
X150734Y420443D02*
X159894Y420000D01*
X211400Y339898D02*
Y341600D01*
X149992Y269898D02*
Y271492D01*
Y268126D02*
Y269898D01*
Y266700D02*
Y268126D01*
X149992Y266700D02*
X149992D01*
X125700D02*
X149992D01*
X149992Y266354D02*
Y266700D01*
Y265700D02*
Y266354D01*
X140874Y303020D02*
X148800D01*
X139102D02*
X140874D01*
X120228Y266000D02*
X122000D01*
X157500Y349300D02*
X162000D01*
X276500Y319300D02*
X281400Y314400D01*
X266500Y318750D02*
Y323913D01*
X259950Y312200D02*
X266500Y318750D01*
X254600Y308700D02*
X279600D01*
X282300Y306000D01*
X295000D01*
X316500Y288000D02*
X329150D01*
X240000Y305047D02*
Y306000D01*
X229481Y306800D02*
X230281Y306000D01*
X212600Y309100D02*
X214901Y306800D01*
X229481D01*
X212600Y309100D02*
X212701Y309201D01*
X211700Y308200D02*
X212600Y309100D01*
X212500Y309201D02*
Y328701D01*
Y309201D02*
X212600Y309100D01*
X212500Y309201D02*
X212701D01*
X200700Y308200D02*
X211700D01*
X262413Y347047D02*
X266000D01*
X187352Y288500D02*
X192500D01*
X149791Y322008D02*
Y323780D01*
Y320236D02*
Y322008D01*
Y318900D02*
Y320236D01*
X313894Y329700D02*
X314494Y330300D01*
X312900Y332100D02*
X318100Y337300D01*
X304850Y332100D02*
X312900D01*
X312450Y329700D02*
X313894D01*
X311500Y328750D02*
X312450Y329700D01*
X301500Y328750D02*
X304850Y332100D01*
X310810Y334500D02*
X315400Y339090D01*
X303041Y334500D02*
X310810D01*
X301000Y336541D02*
X303041Y334500D01*
X314494Y330300D02*
X330140D01*
X305606Y340000D02*
X308000Y342394D01*
X279047Y347347D02*
X286394Y340000D01*
X133772Y348000D02*
X137500D01*
X132000D02*
X133772D01*
X228000Y342000D02*
X238300D01*
X244900Y311700D02*
Y345353D01*
X247300Y335434D02*
X258000Y346134D01*
X247300Y316200D02*
Y335434D01*
X149791Y318900D02*
X179312D01*
X207000Y346000D02*
X211400Y341600D01*
X184000Y345047D02*
Y346000D01*
Y340850D02*
Y345047D01*
X169947Y384953D02*
X170453D01*
X170300Y384800D02*
X170453Y384953D01*
X170300Y359900D02*
Y384800D01*
X153500Y388500D02*
X154500Y387500D01*
X153500Y388500D02*
Y398200D01*
X159800Y404500D01*
X144900Y407600D02*
X173942D01*
X159800Y404500D02*
Y407400D01*
X173942Y407600D02*
X177287Y410945D01*
X191898Y412000D02*
Y412102D01*
X184000Y420000D02*
X191898Y412102D01*
X177287Y420000D02*
X184000D01*
X182139Y390392D02*
Y414967D01*
X182106Y415000D02*
X182139Y414967D01*
X171100Y415000D02*
X182106D01*
X134020Y380000D02*
Y392500D01*
X142551D01*
X125500D02*
X134020D01*
X134000Y379980D02*
X134020Y380000D01*
X134000Y375000D02*
Y379980D01*
Y375000D02*
X139000Y370000D01*
X142063D01*
X139200Y409300D02*
X151000Y397500D01*
Y391050D02*
Y397500D01*
X147450Y387500D02*
X151000Y391050D01*
X139200Y409300D02*
Y409500D01*
X132500Y420000D02*
X144900Y407600D01*
X116000Y420000D02*
X132500D01*
X146500Y410000D02*
X166100D01*
X144000Y412500D02*
X146500Y410000D01*
X144000Y412500D02*
Y425700D01*
X166100Y410000D02*
X171100Y415000D01*
X138900Y409800D02*
X139200Y409500D01*
X144000Y425700D02*
X148300Y430000D01*
X112500Y409800D02*
X138900D01*
X177500Y440909D02*
X180591Y444000D01*
X177500Y430000D02*
Y440909D01*
X294000Y345500D02*
X294100Y345400D01*
Y341100D02*
Y345400D01*
X258000Y352953D02*
Y362000D01*
X252500Y352953D02*
X258000D01*
X242495Y374000D02*
X247247Y369247D01*
X242495Y374000D02*
X244353D01*
X242000D02*
X242495D01*
X250753Y369247D02*
X258000Y362000D01*
X247247Y369247D02*
X250753D01*
X284953Y352000D02*
Y355547D01*
X282500Y358000D02*
X284953Y355547D01*
X274000Y358000D02*
X282500D01*
X272500Y356500D02*
X274000Y358000D01*
X272500Y352953D02*
Y356500D01*
Y343200D02*
Y352953D01*
X270500D02*
X272500D01*
Y343200D02*
X281500Y334200D01*
X270600Y334000D02*
X276090Y339490D01*
X311500Y288087D02*
Y293500D01*
X307300Y297700D02*
X311500Y293500D01*
X301800Y297700D02*
X307300D01*
X298886Y300614D02*
X301800Y297700D01*
X273364Y300614D02*
X298886D01*
X291500Y317700D02*
X297500Y311700D01*
Y308500D02*
Y311700D01*
X295000Y306000D02*
X297500Y308500D01*
X272500Y303400D02*
X300000D01*
X301100Y304500D01*
X162602Y292102D02*
X172000D01*
X159803Y289303D02*
X162602Y292102D01*
X159803Y287150D02*
Y289303D01*
X159350Y280850D02*
X159803D01*
X149992Y271492D02*
X159350Y280850D01*
X133972Y294118D02*
X139102Y299248D01*
X244000Y262600D02*
Y272953D01*
X250000D01*
X242500Y286000D02*
X244000Y284500D01*
Y272953D02*
Y284500D01*
X220900Y262600D02*
X244000D01*
X150734Y420443D02*
X150734D01*
X150713Y420444D02*
X150734Y420443D01*
X337400Y275850D02*
Y334800D01*
Y272600D02*
Y275850D01*
X331250Y282000D02*
X337400Y275850D01*
X180030Y392500D02*
X182139Y390392D01*
X132201Y294118D02*
X133972D01*
X122000Y266000D02*
X125000D01*
X204102Y427400D02*
Y428000D01*
Y412000D02*
Y427400D01*
X106028Y336339D02*
Y338110D01*
Y292044D02*
Y336339D01*
X260039Y339906D02*
X266000D01*
X258000Y337866D02*
X260039Y339906D01*
X251300Y312200D02*
X259950D01*
X247300Y316200D02*
X251300Y312200D01*
X256500Y316500D02*
Y323913D01*
X299409Y271740D02*
X307374D01*
X297150Y274000D02*
X299409Y271740D01*
X261500Y288087D02*
Y303500D01*
X195874Y387530D02*
Y392126D01*
X190000Y398000D02*
X195874Y392126D01*
Y370984D02*
Y376864D01*
X190890Y366000D02*
X195874Y370984D01*
X296500Y323913D02*
Y338700D01*
X294100Y341100D02*
X296500Y338700D01*
X271500Y323913D02*
Y328750D01*
X274950Y332200D01*
X276900D01*
X276500Y319300D02*
Y323913D01*
X281400Y314400D02*
X282200D01*
X308000Y342394D02*
Y352000D01*
X225898Y270000D02*
Y281320D01*
X223618Y283600D02*
X225898Y281320D01*
X206200Y283600D02*
X223618D01*
X198975Y276375D02*
X206200Y283600D01*
X192000Y268000D02*
X198975Y276375D01*
X202500Y284000D02*
Y291299D01*
X200000Y281500D02*
X202500Y284000D01*
X190953Y281500D02*
X200000D01*
X190953Y278000D02*
Y281500D01*
X197500Y313900D02*
Y328701D01*
X196000Y312400D02*
X197500Y313900D01*
X203898Y271600D02*
X209500Y277202D01*
X203898Y270000D02*
Y271600D01*
X316626Y268000D02*
X318300D01*
Y275300D02*
X325000Y282000D01*
X331250D01*
X337400Y272600D02*
X344000Y266000D01*
X191898Y425100D02*
Y428000D01*
X182139Y390392D02*
X185000Y387530D01*
X148800Y303020D02*
X152969Y298850D01*
X192500Y288500D02*
Y291299D01*
X178750Y279898D02*
X187352Y288500D01*
X172000Y279898D02*
X178750D01*
X228000Y335600D02*
Y342000D01*
X227500Y328701D02*
X228000Y335600D01*
X230075Y293874D02*
X238000D01*
X227500Y291299D02*
X230075Y293874D01*
X301100Y304500D02*
Y315700D01*
X266500Y297400D02*
X272500Y303400D01*
X266500Y288087D02*
Y297400D01*
X159894Y420000D02*
X177287D01*
X150713D02*
Y420444D01*
X176850Y331600D02*
Y336000D01*
Y331600D02*
X186250D01*
X191250Y336600D01*
Y339898D01*
X198000D01*
X207500Y291299D02*
Y297900D01*
X205000Y300400D02*
X207500Y297900D01*
X306500Y281500D02*
X310050Y277950D01*
X306500Y281500D02*
Y288087D01*
X212500Y291299D02*
Y302800D01*
X231700Y326637D02*
X235000Y329937D01*
X162000Y326300D02*
Y331047D01*
Y326300D02*
X165000Y323300D01*
X222500Y319350D02*
Y328701D01*
X106028Y338110D02*
Y339882D01*
X167400Y387500D02*
X169947Y384953D01*
X161449Y387500D02*
X167400D01*
X185047Y271047D02*
Y278000D01*
X182000Y268000D02*
X185047Y271047D01*
X169500Y397500D02*
X170000Y398000D01*
X284900Y295900D02*
X286500Y294300D01*
Y288087D02*
Y294300D01*
X219300Y278900D02*
Y279300D01*
Y278900D02*
X220900Y277300D01*
Y262600D02*
Y277300D01*
X238000Y286000D02*
X242500D01*
X291047Y262600D02*
Y264000D01*
X291500Y317700D02*
Y323913D01*
X246800Y300900D02*
X254600Y308700D01*
X218800Y300900D02*
X246800D01*
X217500Y299600D02*
X218800Y300900D01*
X217500Y291299D02*
Y299600D01*
X285100Y266900D02*
X286800Y268600D01*
X296953D01*
Y264000D02*
Y268600D01*
X271500Y277798D02*
Y288087D01*
X263898Y270195D02*
X271500Y277798D01*
X263898Y270000D02*
Y270195D01*
X192500Y317601D02*
Y328701D01*
X176796Y301898D02*
X192500Y317601D01*
X172000Y301898D02*
X176796D01*
X179312Y309300D02*
Y318900D01*
X167500Y309300D02*
X179312D01*
X164600Y306400D02*
X167500Y309300D01*
X164600Y297000D02*
Y306400D01*
Y297000D02*
X183400D01*
X184300Y297900D01*
X196250D01*
X197500Y296650D01*
Y291299D02*
Y296650D01*
X222500Y291299D02*
Y296450D01*
X224480Y298430D01*
X250430D01*
X251200Y299200D01*
X286500Y316000D02*
X291500Y311000D01*
X286500Y316000D02*
Y323913D01*
X306500Y302800D02*
Y323913D01*
X177110Y366000D02*
X184000D01*
X291500Y294700D02*
X292200Y295400D01*
X291500Y288087D02*
Y294700D01*
X296500Y282500D02*
Y288087D01*
X295200Y281200D02*
X296500Y282500D01*
X288200Y281200D02*
X295200D01*
X286800Y279800D02*
X288200Y281200D01*
X231700Y317200D02*
Y326637D01*
X235000Y329937D02*
X238000D01*
X152969Y298850D02*
X159803D01*
X161449Y397500D02*
X169500D01*
X170000Y398000D02*
X176220D01*
X216102Y262600D02*
Y270000D01*
X167400Y262600D02*
X216102D01*
X162000Y268000D02*
X167400Y262600D01*
X142551Y387500D02*
X147450D01*
X108200Y405500D02*
X112500Y409800D01*
X108200Y389800D02*
Y405500D01*
Y389800D02*
X116000Y382000D01*
X323200Y271200D02*
X328000Y276000D01*
X323200Y267460D02*
Y271200D01*
X320000Y264260D02*
X323200Y267460D01*
X307374Y264260D02*
X320000D01*
X275800Y295100D02*
Y296300D01*
X277800Y295100D02*
X281500Y291400D01*
Y288087D02*
Y291400D01*
X370000Y336000D02*
Y358000D01*
X366000Y362000D02*
X370000Y358000D01*
X252000Y374000D02*
X256800Y378800D01*
X326000D01*
X334800Y370000D01*
Y359600D02*
Y370000D01*
X322900Y347700D02*
X334800Y359600D01*
X322900Y341600D02*
Y347700D01*
Y341600D02*
X328000Y336500D01*
X258000Y332600D02*
Y337866D01*
Y332600D02*
X261500Y329100D01*
Y323913D02*
Y329100D01*
X148547Y336953D02*
X162000D01*
X137500Y348000D02*
X148547Y336953D01*
X162000Y353937D02*
X165363D01*
X166800Y352500D01*
Y341500D02*
Y352500D01*
X157200Y341500D02*
X166800D01*
X149937Y348763D02*
X157200Y341500D01*
X149937Y348763D02*
Y370000D01*
X364800Y271200D02*
X370000Y266000D01*
X364800Y271200D02*
Y340000D01*
X360600Y344200D02*
X364800Y340000D01*
X339000Y344200D02*
X360600D01*
X332340Y337540D02*
X339000Y344200D01*
X332340Y332500D02*
Y337540D01*
X330140Y330300D02*
X332340Y332500D01*
X311500Y323913D02*
Y328750D01*
X271500Y288087D02*
Y298750D01*
X273364Y300614D01*
X263898Y268600D02*
Y270000D01*
X316900Y364000D02*
X320000D01*
X315400Y362500D02*
X316900Y364000D01*
X315400Y339090D02*
Y362500D01*
X301000Y336541D02*
Y350306D01*
X302094Y351400D01*
Y352000D01*
X301500Y323913D02*
Y328750D01*
X318100Y337300D02*
Y352400D01*
X324800Y359100D01*
Y367500D01*
X323500Y368800D02*
X324800Y367500D01*
X314800Y368800D02*
X323500D01*
X310000Y364000D02*
X314800Y368800D01*
X316500Y288000D02*
Y288087D01*
X329150Y288000D02*
X331150Y290000D01*
Y294000D01*
X251500Y323913D02*
Y330400D01*
X252300Y331200D01*
X238102Y270000D02*
Y276198D01*
X235900Y278400D02*
X238102Y276198D01*
X220000Y311100D02*
X227700D01*
X217500Y313600D02*
X220000Y311100D01*
X217500Y313600D02*
Y328701D01*
X240000Y310953D02*
X244153D01*
X244900Y311700D01*
Y345353D02*
X252500Y352953D01*
X154500Y387500D02*
X161449D01*
X214000Y352102D02*
X221000D01*
Y359600D01*
X207500Y328701D02*
Y334200D01*
X206600Y335100D02*
X207500Y334200D01*
X206600Y335100D02*
Y338298D01*
X205000Y339898D02*
X206600Y338298D01*
X198000Y339898D02*
X205000D01*
X242000Y374000D02*
Y415600D01*
X230200Y427400D02*
X242000Y415600D01*
X223976Y349874D02*
X228000D01*
X214000Y339898D02*
X223976Y349874D01*
X238000Y317500D02*
Y322063D01*
Y317500D02*
X240000Y315500D01*
Y310953D02*
Y315500D01*
X211400Y339898D02*
X214000D01*
X301500Y281600D02*
Y288087D01*
X298637Y278737D02*
X301500Y281600D01*
X292088Y278737D02*
X298637D01*
X290850Y277500D02*
X292088Y278737D01*
X290850Y274000D02*
Y277500D01*
X161449Y392500D02*
X180030D01*
X185000Y387530D02*
X188000D01*
X281500Y323913D02*
Y334200D01*
X176000Y350953D02*
Y354200D01*
X170300Y359900D02*
X176000Y354200D01*
X170453Y384953D02*
X176000D01*
X161449Y382500D02*
X166000D01*
X228000Y349874D02*
Y400591D01*
X218000Y410591D02*
X228000Y400591D01*
X106028Y292044D02*
X106228Y291843D01*
X125000Y266000D02*
X125700Y266700D01*
X266000Y334000D02*
X270600D01*
X344000Y336000D02*
X355200Y324800D01*
Y320800D02*
Y324800D01*
Y320800D02*
X360000Y316000D01*
X352000Y314000D02*
X360000Y306000D01*
X352000Y314000D02*
Y318000D01*
X344000Y326000D02*
X352000Y318000D01*
X355200Y300800D02*
X360000Y296000D01*
X355200Y300800D02*
Y304800D01*
X344000Y316000D02*
X355200Y304800D01*
X352000Y284000D02*
X360000Y276000D01*
X352000Y284000D02*
Y288000D01*
X344000Y296000D02*
X352000Y288000D01*
Y294000D02*
X360000Y286000D01*
X352000Y294000D02*
Y298000D01*
X344000Y306000D02*
X352000Y298000D01*
X344000Y286000D02*
X349121Y280879D01*
Y276879D02*
Y280879D01*
Y276879D02*
X360000Y266000D01*
X165000Y314102D02*
X172000D01*
X159800Y308902D02*
X165000Y314102D01*
X159800Y305150D02*
X159803D01*
X279047Y347347D02*
Y352000D01*
X149500Y382500D02*
X154500Y387500D01*
X142551Y382500D02*
X149500D01*
X162000Y346063D02*
Y349300D01*
X155900Y350900D02*
X157500Y349300D01*
X155900Y350900D02*
Y373619D01*
X150000Y379519D02*
X155900Y373619D01*
X138152Y379519D02*
X150000D01*
X136420Y381250D02*
X138152Y379519D01*
X136420Y381250D02*
Y384520D01*
X139400Y387500D01*
X142551D01*
X116000Y402000D02*
X125500Y392500D01*
X322300Y294000D02*
X324850D01*
X316500Y314700D02*
X322300Y308900D01*
X316500Y314700D02*
Y323913D01*
X258353Y270000D02*
X263898D01*
X250000Y267047D02*
X255400D01*
X211109Y403700D02*
X218000Y410591D01*
X193198Y403700D02*
X211109D01*
X191898Y405000D02*
X193198Y403700D01*
X191898Y405000D02*
Y412000D01*
X261500Y346134D02*
X262413Y347047D01*
X258000Y346134D02*
X261500D01*
X330000Y300250D02*
Y305409D01*
Y300250D02*
X331150Y299100D01*
Y294000D02*
Y299100D01*
X183084Y376864D02*
X188000D01*
X180900Y379047D02*
X183084Y376864D01*
X176000Y379047D02*
X180900D01*
X188000Y376864D02*
Y387530D01*
X185055Y428000D02*
X191898D01*
X184000Y429055D02*
X185055Y428000D01*
X177287Y429055D02*
X184000D01*
X276500Y279198D02*
Y288087D01*
X276102Y278800D02*
X276500Y279198D01*
X276102Y270000D02*
Y278800D01*
X214000Y335000D02*
Y339898D01*
X212500Y333500D02*
X214000Y335000D01*
X212500Y328701D02*
Y333500D01*
X183150Y340000D02*
X184000Y340850D01*
X183150Y336000D02*
Y340000D01*
X176000Y340850D02*
Y345047D01*
Y340850D02*
X176850Y340000D01*
Y336000D02*
Y340000D01*
X198000Y352102D02*
X214000D01*
X191550D02*
X198000D01*
X190400Y350953D02*
X191550Y352102D01*
X184000Y350953D02*
X190400D01*
X176000D02*
X184000D01*
X370000Y286000D02*
Y296000D01*
Y276000D02*
Y286000D01*
Y296000D02*
Y306000D01*
Y316000D01*
X360000Y326000D02*
Y336000D01*
X370000Y316000D02*
Y326000D01*
X284953Y352000D02*
X302094D01*
D27*
X149992Y269898D02*
D03*
Y266354D02*
D03*
X140874Y303020D02*
D03*
X137331D02*
D03*
X130429Y294118D02*
D03*
X133972D02*
D03*
X106228Y282457D02*
D03*
Y286000D02*
D03*
X118457Y266000D02*
D03*
X122000D02*
D03*
X121799Y319882D02*
D03*
X118256D02*
D03*
X106028Y339882D02*
D03*
Y336339D02*
D03*
X133772Y348000D02*
D03*
X130228D02*
D03*
X137130Y356902D02*
D03*
X140673D02*
D03*
X149791Y320236D02*
D03*
Y323780D02*
D03*
D28*
X149992Y268126D02*
D03*
X106228Y284228D02*
D03*
X106028Y338110D02*
D03*
X149791Y322008D02*
D03*
D29*
X139102Y303020D02*
D03*
X132201Y294118D02*
D03*
X120228Y266000D02*
D03*
X120028Y319882D02*
D03*
X132000Y348000D02*
D03*
X138902Y356902D02*
D03*
D30*
X328000Y266000D02*
D03*
X360000Y336000D02*
D03*
X370000D02*
D03*
X360000Y326000D02*
D03*
X370000D02*
D03*
X360000Y316000D02*
D03*
X370000D02*
D03*
X360000Y306000D02*
D03*
X370000D02*
D03*
X360000Y296000D02*
D03*
X370000D02*
D03*
X360000Y286000D02*
D03*
X370000D02*
D03*
X360000Y276000D02*
D03*
X370000D02*
D03*
X360000Y266000D02*
D03*
X172000Y268000D02*
D03*
X182000D02*
D03*
X192000D02*
D03*
X262000Y374000D02*
D03*
X252000D02*
D03*
X344000Y336000D02*
D03*
Y326000D02*
D03*
Y316000D02*
D03*
Y306000D02*
D03*
Y296000D02*
D03*
Y286000D02*
D03*
Y276000D02*
D03*
X290000Y364000D02*
D03*
X300000D02*
D03*
X310000D02*
D03*
X320000D02*
D03*
X330000D02*
D03*
D31*
X328000Y276000D02*
D03*
X370000Y266000D02*
D03*
X344000D02*
D03*
D32*
X330000Y346591D02*
D03*
X366000Y442000D02*
D03*
X356000D02*
D03*
X246000D02*
D03*
X236000D02*
D03*
Y362000D02*
D03*
X246000D02*
D03*
X356000D02*
D03*
X366000D02*
D03*
X218000Y410591D02*
D03*
X139409Y444000D02*
D03*
D33*
X330000Y305409D02*
D03*
X218000Y369409D02*
D03*
D34*
X286394Y339200D02*
D03*
D35*
X305606D02*
D03*
D36*
X258000Y346134D02*
D03*
Y337866D02*
D03*
D37*
X116000Y402000D02*
D03*
Y382000D02*
D03*
Y440000D02*
D03*
Y420000D02*
D03*
D38*
X180591Y444000D02*
D03*
D39*
X282200Y314400D02*
D03*
X238300Y342000D02*
D03*
X294000Y345500D02*
D03*
X256500Y316500D02*
D03*
X261500Y303500D02*
D03*
X276900Y332200D02*
D03*
X196000Y312400D02*
D03*
X209500Y277202D02*
D03*
X301100Y315700D02*
D03*
X205000Y300400D02*
D03*
X310050Y277950D02*
D03*
X212500Y302800D02*
D03*
X231700Y317200D02*
D03*
X165000Y323300D02*
D03*
X222500Y319350D02*
D03*
X170000Y398000D02*
D03*
X284900Y295900D02*
D03*
X200700Y308200D02*
D03*
X219300Y279300D02*
D03*
X285100Y266900D02*
D03*
X251200Y299200D02*
D03*
X291500Y311000D02*
D03*
X306500Y302800D02*
D03*
X292200Y295400D02*
D03*
X286800Y279800D02*
D03*
X275800Y296300D02*
D03*
X328000Y336500D02*
D03*
X337400Y334800D02*
D03*
X258100Y268600D02*
D03*
X252300Y331200D02*
D03*
X235900Y278400D02*
D03*
X227700Y311100D02*
D03*
X221000Y359600D02*
D03*
X184000Y366000D02*
D03*
X166000D02*
D03*
M02*
