%FSLAX25Y25*%
%MOIN*%
G70*
G01*
G75*
G04 Layer_Color=8388736*
%ADD10R,0.05906X0.05512*%
%ADD11O,0.02756X0.09055*%
%ADD12R,0.05709X0.02362*%
%ADD13R,0.04331X0.05512*%
%ADD14R,0.03937X0.05118*%
%ADD15R,0.05512X0.04331*%
%ADD16O,0.02362X0.09055*%
%ADD17R,0.05906X0.11024*%
%ADD18R,0.11024X0.05906*%
%ADD19R,0.05118X0.03937*%
%ADD20R,0.05512X0.05906*%
%ADD21R,0.05906X0.05906*%
%ADD22O,0.08661X0.02362*%
%ADD23R,0.06102X0.13583*%
%ADD24R,0.06102X0.04331*%
%ADD25R,0.06102X0.04331*%
%ADD26C,0.01200*%
%ADD27C,0.04724*%
%ADD28O,0.07087X0.10630*%
%ADD29O,0.10630X0.07087*%
%ADD30C,0.05906*%
%ADD31R,0.05906X0.05906*%
%ADD32C,0.07874*%
%ADD33R,0.07874X0.07874*%
%ADD34C,0.05512*%
%ADD35P,0.05966X8X202.5*%
%ADD36C,0.04724*%
%ADD37C,0.11810*%
%ADD38R,0.07874X0.07874*%
%ADD39C,0.05000*%
%ADD40C,0.63000*%
%ADD41R,0.10000X0.20000*%
%ADD42C,0.02362*%
%ADD43C,0.00984*%
%ADD44C,0.00787*%
%ADD45C,0.01000*%
%ADD46C,0.00787*%
%ADD47C,0.00800*%
%ADD48R,0.11024X0.03150*%
%ADD49R,0.03150X0.11024*%
%ADD50R,0.06706X0.06312*%
%ADD51O,0.03556X0.09855*%
%ADD52R,0.06509X0.03162*%
%ADD53R,0.05131X0.06312*%
%ADD54R,0.04737X0.05918*%
%ADD55R,0.06312X0.05131*%
%ADD56O,0.03162X0.09855*%
%ADD57R,0.06706X0.11824*%
%ADD58R,0.11824X0.06706*%
%ADD59R,0.05918X0.04737*%
%ADD60R,0.06312X0.06706*%
%ADD61R,0.06706X0.06706*%
%ADD62O,0.09461X0.03162*%
%ADD63R,0.06902X0.14383*%
%ADD64R,0.06902X0.05131*%
%ADD65R,0.06902X0.05131*%
%ADD66C,0.05524*%
%ADD67O,0.07887X0.11430*%
%ADD68O,0.11430X0.07887*%
%ADD69C,0.06706*%
%ADD70R,0.06706X0.06706*%
%ADD71C,0.08674*%
%ADD72R,0.08674X0.08674*%
%ADD73C,0.06312*%
%ADD74P,0.06832X8X202.5*%
%ADD75C,0.05524*%
%ADD76C,0.12610*%
%ADD77R,0.08674X0.08674*%
%ADD78C,0.05800*%
D50*
X162000Y346063D02*
D03*
Y353937D02*
D03*
X228000Y349874D02*
D03*
Y342000D02*
D03*
X238000Y322063D02*
D03*
Y329937D02*
D03*
Y286000D02*
D03*
Y293874D02*
D03*
D51*
X227500Y328701D02*
D03*
X222500D02*
D03*
X217500D02*
D03*
X212500D02*
D03*
X207500D02*
D03*
X202500D02*
D03*
X197500D02*
D03*
X192500D02*
D03*
X227500Y291299D02*
D03*
X222500D02*
D03*
X217500D02*
D03*
X212500D02*
D03*
X207500D02*
D03*
X202500D02*
D03*
X197500D02*
D03*
X192500D02*
D03*
D52*
X316626Y268000D02*
D03*
X307374Y264260D02*
D03*
Y271740D02*
D03*
D53*
X291047Y264000D02*
D03*
X296953D02*
D03*
X308000Y352000D02*
D03*
X302094D02*
D03*
X279047D02*
D03*
X284953D02*
D03*
X190953Y278000D02*
D03*
X185047D02*
D03*
D54*
X297150Y274000D02*
D03*
X290850D02*
D03*
X324850Y294000D02*
D03*
X331150D02*
D03*
X176850Y336000D02*
D03*
X183150D02*
D03*
D55*
X266000Y346647D02*
D03*
Y352553D02*
D03*
Y339906D02*
D03*
Y334000D02*
D03*
X250000Y272953D02*
D03*
Y267047D02*
D03*
X184000Y345047D02*
D03*
Y350953D02*
D03*
X176000Y345047D02*
D03*
Y350953D02*
D03*
Y379047D02*
D03*
Y384953D02*
D03*
X240000Y305047D02*
D03*
Y310953D02*
D03*
X162000Y336953D02*
D03*
Y331047D02*
D03*
D56*
X316500Y323913D02*
D03*
X311500D02*
D03*
X306500D02*
D03*
X301500D02*
D03*
X296500D02*
D03*
X291500D02*
D03*
X286500D02*
D03*
X281500D02*
D03*
X276500D02*
D03*
X271500D02*
D03*
X266500D02*
D03*
X261500D02*
D03*
X256500D02*
D03*
X251500D02*
D03*
X316500Y288087D02*
D03*
X311500D02*
D03*
X306500D02*
D03*
X301500D02*
D03*
X296500D02*
D03*
X291500D02*
D03*
X286500D02*
D03*
X281500D02*
D03*
X276500D02*
D03*
X271500D02*
D03*
X266500D02*
D03*
X261500D02*
D03*
X256500D02*
D03*
X251500D02*
D03*
D57*
X263898Y270000D02*
D03*
X276102D02*
D03*
X225898D02*
D03*
X238102D02*
D03*
X216102D02*
D03*
X203898D02*
D03*
X204102Y428000D02*
D03*
X191898D02*
D03*
X204102Y412000D02*
D03*
X191898D02*
D03*
D58*
X172000Y292102D02*
D03*
Y279898D02*
D03*
Y314102D02*
D03*
Y301898D02*
D03*
X214000Y352102D02*
D03*
Y339898D02*
D03*
X198000Y352102D02*
D03*
Y339898D02*
D03*
D59*
X159803Y280850D02*
D03*
Y287150D02*
D03*
Y298850D02*
D03*
Y305150D02*
D03*
D60*
X188000Y376864D02*
D03*
X195874D02*
D03*
X188000Y387530D02*
D03*
X195874D02*
D03*
X142063Y370000D02*
D03*
X149937D02*
D03*
D61*
X177110Y366000D02*
D03*
X190890D02*
D03*
X176220Y398000D02*
D03*
X190000D02*
D03*
X162000Y268000D02*
D03*
X242000Y374000D02*
D03*
X340000Y364000D02*
D03*
D62*
X161449Y382500D02*
D03*
Y387500D02*
D03*
Y392500D02*
D03*
Y397500D02*
D03*
X142551Y382500D02*
D03*
Y387500D02*
D03*
Y392500D02*
D03*
Y397500D02*
D03*
D63*
X150713Y420000D02*
D03*
D64*
X177287Y429055D02*
D03*
Y420000D02*
D03*
D65*
Y410945D02*
D03*
D66*
X149992Y269898D02*
D03*
Y266354D02*
D03*
X140874Y303020D02*
D03*
X137331D02*
D03*
X130429Y294118D02*
D03*
X133972D02*
D03*
X106228Y282457D02*
D03*
Y286000D02*
D03*
X118457Y266000D02*
D03*
X122000D02*
D03*
X121799Y319882D02*
D03*
X118256D02*
D03*
X106028Y339882D02*
D03*
Y336339D02*
D03*
X133772Y348000D02*
D03*
X130228D02*
D03*
X137130Y356902D02*
D03*
X140673D02*
D03*
X149791Y320236D02*
D03*
Y323780D02*
D03*
D67*
X149992Y268126D02*
D03*
X106228Y284228D02*
D03*
X106028Y338110D02*
D03*
X149791Y322008D02*
D03*
D68*
X139102Y303020D02*
D03*
X132201Y294118D02*
D03*
X120228Y266000D02*
D03*
X120028Y319882D02*
D03*
X132000Y348000D02*
D03*
X138902Y356902D02*
D03*
D69*
X328000Y266000D02*
D03*
X360000Y336000D02*
D03*
X370000D02*
D03*
X360000Y326000D02*
D03*
X370000D02*
D03*
X360000Y316000D02*
D03*
X370000D02*
D03*
X360000Y306000D02*
D03*
X370000D02*
D03*
X360000Y296000D02*
D03*
X370000D02*
D03*
X360000Y286000D02*
D03*
X370000D02*
D03*
X360000Y276000D02*
D03*
X370000D02*
D03*
X360000Y266000D02*
D03*
X172000Y268000D02*
D03*
X182000D02*
D03*
X192000D02*
D03*
X262000Y374000D02*
D03*
X252000D02*
D03*
X344000Y336000D02*
D03*
Y326000D02*
D03*
Y316000D02*
D03*
Y306000D02*
D03*
Y296000D02*
D03*
Y286000D02*
D03*
Y276000D02*
D03*
X290000Y364000D02*
D03*
X300000D02*
D03*
X310000D02*
D03*
X320000D02*
D03*
X330000D02*
D03*
D70*
X328000Y276000D02*
D03*
X370000Y266000D02*
D03*
X344000D02*
D03*
D71*
X330000Y346591D02*
D03*
X366000Y442000D02*
D03*
X356000D02*
D03*
X246000D02*
D03*
X236000D02*
D03*
Y362000D02*
D03*
X246000D02*
D03*
X356000D02*
D03*
X366000D02*
D03*
X218000Y410591D02*
D03*
X139409Y444000D02*
D03*
D72*
X330000Y305409D02*
D03*
X218000Y369409D02*
D03*
D73*
X286394Y339200D02*
D03*
D74*
X305606D02*
D03*
D75*
X258000Y346134D02*
D03*
Y337866D02*
D03*
D76*
X116000Y402000D02*
D03*
Y382000D02*
D03*
Y440000D02*
D03*
Y420000D02*
D03*
D77*
X180591Y444000D02*
D03*
D78*
X282200Y314400D02*
D03*
X238300Y342000D02*
D03*
X294000Y345500D02*
D03*
X256500Y316500D02*
D03*
X261500Y303500D02*
D03*
X276900Y332200D02*
D03*
X196000Y312400D02*
D03*
X209500Y277202D02*
D03*
X301100Y315700D02*
D03*
X205000Y300400D02*
D03*
X310050Y277950D02*
D03*
X212500Y302800D02*
D03*
X231700Y317200D02*
D03*
X165000Y323300D02*
D03*
X222500Y319350D02*
D03*
X170000Y398000D02*
D03*
X284900Y295900D02*
D03*
X200700Y308200D02*
D03*
X219300Y279300D02*
D03*
X285100Y266900D02*
D03*
X251200Y299200D02*
D03*
X291500Y311000D02*
D03*
X306500Y302800D02*
D03*
X292200Y295400D02*
D03*
X286800Y279800D02*
D03*
X275800Y296300D02*
D03*
X328000Y336500D02*
D03*
X337400Y334800D02*
D03*
X258100Y268600D02*
D03*
X252300Y331200D02*
D03*
X235900Y278400D02*
D03*
X227700Y311100D02*
D03*
X221000Y359600D02*
D03*
X184000Y366000D02*
D03*
X166000D02*
D03*
M02*
