%FSLAX25Y25*%
%MOIN*%
G70*
G01*
G75*
G04 Layer_Color=8421504*
%ADD10R,0.05906X0.05512*%
%ADD11O,0.02756X0.09055*%
%ADD12R,0.05709X0.02362*%
%ADD13R,0.04331X0.05512*%
%ADD14R,0.03937X0.05118*%
%ADD15R,0.05512X0.04331*%
%ADD16O,0.02362X0.09055*%
%ADD17R,0.05906X0.11024*%
%ADD18R,0.11024X0.05906*%
%ADD19R,0.05118X0.03937*%
%ADD20R,0.05512X0.05906*%
%ADD21R,0.05906X0.05906*%
%ADD22O,0.08661X0.02362*%
%ADD23R,0.06102X0.13583*%
%ADD24R,0.06102X0.04331*%
%ADD25R,0.06102X0.04331*%
%ADD26C,0.01200*%
%ADD27C,0.04724*%
%ADD28O,0.07087X0.10630*%
%ADD29O,0.10630X0.07087*%
%ADD30C,0.05906*%
%ADD31R,0.05906X0.05906*%
%ADD32C,0.07874*%
%ADD33R,0.07874X0.07874*%
%ADD34C,0.05512*%
%ADD35P,0.05966X8X202.5*%
%ADD36C,0.04724*%
%ADD37C,0.11810*%
%ADD38R,0.07874X0.07874*%
%ADD39C,0.05000*%
%ADD40C,0.63000*%
%ADD41R,0.10000X0.20000*%
%ADD42C,0.02362*%
%ADD43C,0.00984*%
%ADD44C,0.00787*%
%ADD45C,0.01000*%
%ADD46C,0.00787*%
%ADD47C,0.00800*%
%ADD48R,0.11024X0.03150*%
%ADD49R,0.03150X0.11024*%
D10*
X162000Y346063D02*
D03*
Y353937D02*
D03*
X228000Y349874D02*
D03*
Y342000D02*
D03*
X238000Y322063D02*
D03*
Y329937D02*
D03*
Y286000D02*
D03*
Y293874D02*
D03*
D11*
X227500Y328701D02*
D03*
X222500D02*
D03*
X217500D02*
D03*
X212500D02*
D03*
X207500D02*
D03*
X202500D02*
D03*
X197500D02*
D03*
X192500D02*
D03*
X227500Y291299D02*
D03*
X222500D02*
D03*
X217500D02*
D03*
X212500D02*
D03*
X207500D02*
D03*
X202500D02*
D03*
X197500D02*
D03*
X192500D02*
D03*
D12*
X316626Y268000D02*
D03*
X307374Y264260D02*
D03*
Y271740D02*
D03*
D13*
X291047Y264000D02*
D03*
X296953D02*
D03*
X308000Y352000D02*
D03*
X302094D02*
D03*
X279047D02*
D03*
X284953D02*
D03*
X190953Y278000D02*
D03*
X185047D02*
D03*
D14*
X297150Y274000D02*
D03*
X290850D02*
D03*
X324850Y294000D02*
D03*
X331150D02*
D03*
X176850Y336000D02*
D03*
X183150D02*
D03*
D15*
X266000Y346647D02*
D03*
Y352553D02*
D03*
Y339906D02*
D03*
Y334000D02*
D03*
X250000Y272953D02*
D03*
Y267047D02*
D03*
X184000Y345047D02*
D03*
Y350953D02*
D03*
X176000Y345047D02*
D03*
Y350953D02*
D03*
Y379047D02*
D03*
Y384953D02*
D03*
X240000Y305047D02*
D03*
Y310953D02*
D03*
X162000Y336953D02*
D03*
Y331047D02*
D03*
D16*
X316500Y323913D02*
D03*
X311500D02*
D03*
X306500D02*
D03*
X301500D02*
D03*
X296500D02*
D03*
X291500D02*
D03*
X286500D02*
D03*
X281500D02*
D03*
X276500D02*
D03*
X271500D02*
D03*
X266500D02*
D03*
X261500D02*
D03*
X256500D02*
D03*
X251500D02*
D03*
X316500Y288087D02*
D03*
X311500D02*
D03*
X306500D02*
D03*
X301500D02*
D03*
X296500D02*
D03*
X291500D02*
D03*
X286500D02*
D03*
X281500D02*
D03*
X276500D02*
D03*
X271500D02*
D03*
X266500D02*
D03*
X261500D02*
D03*
X256500D02*
D03*
X251500D02*
D03*
D17*
X263898Y270000D02*
D03*
X276102D02*
D03*
X225898D02*
D03*
X238102D02*
D03*
X216102D02*
D03*
X203898D02*
D03*
X204102Y428000D02*
D03*
X191898D02*
D03*
X204102Y412000D02*
D03*
X191898D02*
D03*
D18*
X172000Y292102D02*
D03*
Y279898D02*
D03*
Y314102D02*
D03*
Y301898D02*
D03*
X214000Y352102D02*
D03*
Y339898D02*
D03*
X198000Y352102D02*
D03*
Y339898D02*
D03*
D19*
X159803Y280850D02*
D03*
Y287150D02*
D03*
Y298850D02*
D03*
Y305150D02*
D03*
D20*
X188000Y376864D02*
D03*
X195874D02*
D03*
X188000Y387530D02*
D03*
X195874D02*
D03*
X142063Y370000D02*
D03*
X149937D02*
D03*
D21*
X177110Y366000D02*
D03*
X190890D02*
D03*
X176220Y398000D02*
D03*
X190000D02*
D03*
D22*
X161449Y382500D02*
D03*
Y387500D02*
D03*
Y392500D02*
D03*
Y397500D02*
D03*
X142551Y382500D02*
D03*
Y387500D02*
D03*
Y392500D02*
D03*
Y397500D02*
D03*
D23*
X150713Y420000D02*
D03*
D24*
X177287Y429055D02*
D03*
Y420000D02*
D03*
D25*
Y410945D02*
D03*
M02*
