%FSLAX25Y25*%
%MOIN*%
G70*
G01*
G75*
G04 Layer_Color=255*
%ADD10R,0.05906X0.05512*%
%ADD11O,0.02756X0.09055*%
%ADD12R,0.05709X0.02362*%
%ADD13R,0.04331X0.05512*%
%ADD14R,0.03937X0.05118*%
%ADD15R,0.05512X0.04331*%
%ADD16O,0.02362X0.09055*%
%ADD17R,0.05906X0.11024*%
%ADD18R,0.11024X0.05906*%
%ADD19R,0.05118X0.03937*%
%ADD20R,0.05512X0.05906*%
%ADD21R,0.05906X0.05906*%
%ADD22O,0.08661X0.02362*%
%ADD23R,0.06102X0.13583*%
%ADD24R,0.06102X0.04331*%
%ADD25R,0.06102X0.04331*%
%ADD26C,0.01200*%
%ADD27C,0.04724*%
%ADD28O,0.07087X0.10630*%
%ADD29O,0.10630X0.07087*%
%ADD30C,0.05906*%
%ADD31R,0.05906X0.05906*%
%ADD32C,0.07874*%
%ADD33R,0.07874X0.07874*%
%ADD34C,0.05512*%
%ADD35P,0.05966X8X202.5*%
%ADD36C,0.04724*%
%ADD37C,0.11810*%
%ADD38R,0.07874X0.07874*%
%ADD39C,0.05000*%
%ADD40C,0.63000*%
%ADD41R,0.10000X0.20000*%
D21*
X162000Y268000D02*
D03*
X242000Y374000D02*
D03*
X340000Y364000D02*
D03*
D27*
X149992Y269898D02*
D03*
Y266354D02*
D03*
X140874Y303020D02*
D03*
X137331D02*
D03*
X130429Y294118D02*
D03*
X133972D02*
D03*
X106228Y282457D02*
D03*
Y286000D02*
D03*
X118457Y266000D02*
D03*
X122000D02*
D03*
X121799Y319882D02*
D03*
X118256D02*
D03*
X106028Y339882D02*
D03*
Y336339D02*
D03*
X133772Y348000D02*
D03*
X130228D02*
D03*
X137130Y356902D02*
D03*
X140673D02*
D03*
X149791Y320236D02*
D03*
Y323780D02*
D03*
D28*
X149992Y268126D02*
D03*
X106228Y284228D02*
D03*
X106028Y338110D02*
D03*
X149791Y322008D02*
D03*
D29*
X139102Y303020D02*
D03*
X132201Y294118D02*
D03*
X120228Y266000D02*
D03*
X120028Y319882D02*
D03*
X132000Y348000D02*
D03*
X138902Y356902D02*
D03*
D30*
X328000Y266000D02*
D03*
X360000Y336000D02*
D03*
X370000D02*
D03*
X360000Y326000D02*
D03*
X370000D02*
D03*
X360000Y316000D02*
D03*
X370000D02*
D03*
X360000Y306000D02*
D03*
X370000D02*
D03*
X360000Y296000D02*
D03*
X370000D02*
D03*
X360000Y286000D02*
D03*
X370000D02*
D03*
X360000Y276000D02*
D03*
X370000D02*
D03*
X360000Y266000D02*
D03*
X172000Y268000D02*
D03*
X182000D02*
D03*
X192000D02*
D03*
X262000Y374000D02*
D03*
X252000D02*
D03*
X344000Y336000D02*
D03*
Y326000D02*
D03*
Y316000D02*
D03*
Y306000D02*
D03*
Y296000D02*
D03*
Y286000D02*
D03*
Y276000D02*
D03*
X290000Y364000D02*
D03*
X300000D02*
D03*
X310000D02*
D03*
X320000D02*
D03*
X330000D02*
D03*
D31*
X328000Y276000D02*
D03*
X370000Y266000D02*
D03*
X344000D02*
D03*
D32*
X330000Y346591D02*
D03*
X366000Y442000D02*
D03*
X356000D02*
D03*
X246000D02*
D03*
X236000D02*
D03*
Y362000D02*
D03*
X246000D02*
D03*
X356000D02*
D03*
X366000D02*
D03*
X218000Y410591D02*
D03*
X139409Y444000D02*
D03*
D33*
X330000Y305409D02*
D03*
X218000Y369409D02*
D03*
D34*
X286394Y339200D02*
D03*
D35*
X305606D02*
D03*
D36*
X258000Y346134D02*
D03*
Y337866D02*
D03*
D37*
X116000Y402000D02*
D03*
Y382000D02*
D03*
Y440000D02*
D03*
Y420000D02*
D03*
D38*
X180591Y444000D02*
D03*
D40*
X288000Y402000D02*
D03*
D41*
X333000D02*
D03*
X243000D02*
D03*
M02*
