%FSLAX25Y25*%
%MOIN*%
G70*
G01*
G75*
G04 Layer_Color=32768*
%ADD10R,0.05906X0.05512*%
%ADD11O,0.02756X0.09055*%
%ADD12R,0.05709X0.02362*%
%ADD13R,0.04331X0.05512*%
%ADD14R,0.03937X0.05118*%
%ADD15R,0.05512X0.04331*%
%ADD16O,0.02362X0.09055*%
%ADD17R,0.05906X0.11024*%
%ADD18R,0.11024X0.05906*%
%ADD19R,0.05118X0.03937*%
%ADD20R,0.05512X0.05906*%
%ADD21R,0.05906X0.05906*%
%ADD22O,0.08661X0.02362*%
%ADD23R,0.06102X0.13583*%
%ADD24R,0.06102X0.04331*%
%ADD25R,0.06102X0.04331*%
%ADD26C,0.01200*%
%ADD27C,0.04724*%
%ADD28O,0.07087X0.10630*%
%ADD29O,0.10630X0.07087*%
%ADD30C,0.05906*%
%ADD31R,0.05906X0.05906*%
%ADD32C,0.07874*%
%ADD33R,0.07874X0.07874*%
%ADD34C,0.05512*%
%ADD35P,0.05966X8X202.5*%
%ADD36C,0.04724*%
%ADD37C,0.11810*%
%ADD38R,0.07874X0.07874*%
%ADD39C,0.05000*%
%ADD40C,0.63000*%
%ADD41R,0.10000X0.20000*%
%ADD42C,0.02362*%
%ADD43C,0.00984*%
%ADD44C,0.00787*%
%ADD45C,0.01000*%
%ADD46C,0.00787*%
%ADD47C,0.00800*%
%ADD48R,0.11024X0.03150*%
%ADD49R,0.03150X0.11024*%
%ADD50R,0.06706X0.06312*%
%ADD51O,0.03556X0.09855*%
%ADD52R,0.06509X0.03162*%
%ADD53R,0.05131X0.06312*%
%ADD54R,0.04737X0.05918*%
%ADD55R,0.06312X0.05131*%
%ADD56O,0.03162X0.09855*%
%ADD57R,0.06706X0.11824*%
%ADD58R,0.11824X0.06706*%
%ADD59R,0.05918X0.04737*%
%ADD60R,0.06312X0.06706*%
%ADD61R,0.06706X0.06706*%
%ADD62O,0.09461X0.03162*%
%ADD63R,0.06902X0.14383*%
%ADD64R,0.06902X0.05131*%
%ADD65R,0.06902X0.05131*%
%ADD66C,0.05524*%
%ADD67O,0.07887X0.11430*%
%ADD68O,0.11430X0.07887*%
%ADD69C,0.06706*%
%ADD70R,0.06706X0.06706*%
%ADD71C,0.08674*%
%ADD72R,0.08674X0.08674*%
%ADD73C,0.06312*%
%ADD74P,0.06832X8X202.5*%
%ADD75C,0.05524*%
%ADD76C,0.12610*%
%ADD77R,0.08674X0.08674*%
%ADD78C,0.05800*%
%ADD79C,0.63800*%
%ADD80R,0.10800X0.20800*%
%ADD81C,0.00003*%
%ADD82C,0.03937*%
%ADD83C,0.00394*%
%ADD84C,0.07937*%
D83*
X157079Y341339D02*
X166921D01*
X157079Y358661D02*
X166921D01*
X157079Y341339D02*
Y358661D01*
X166921Y341339D02*
Y358661D01*
X162000Y348031D02*
Y351969D01*
X160031Y350000D02*
X163969D01*
X223079Y354598D02*
X232921D01*
X223079Y337276D02*
X232921D01*
Y354598D01*
X223079Y337276D02*
Y354598D01*
X228000Y343969D02*
Y347906D01*
X226032Y345937D02*
X229969D01*
X208032Y310000D02*
X211969D01*
X210000Y308032D02*
Y311969D01*
X231654Y284803D02*
Y335197D01*
X188346Y284803D02*
Y335197D01*
X231654D01*
X188346Y284803D02*
X231654D01*
X312000Y266032D02*
Y269969D01*
X310032Y268000D02*
X313969D01*
X302551Y260126D02*
X321449D01*
X302551Y275874D02*
X321449D01*
Y260126D02*
Y275874D01*
X302551Y260126D02*
Y275874D01*
X288488Y260850D02*
Y267150D01*
X299512Y260850D02*
Y267150D01*
X288488D02*
X299512D01*
X288488Y260850D02*
X299512D01*
X292032Y264000D02*
X295969D01*
X294000Y262032D02*
Y265969D01*
Y272032D02*
Y275969D01*
X292032Y274000D02*
X295969D01*
X288488Y271047D02*
X299512D01*
X288488Y276953D02*
X299512D01*
Y271047D02*
Y276953D01*
X288488Y271047D02*
Y276953D01*
X328000Y292031D02*
Y295969D01*
X326031Y294000D02*
X329969D01*
X322488Y296953D02*
X333512D01*
X322488Y291047D02*
X333512D01*
X322488D02*
Y296953D01*
X333512Y291047D02*
Y296953D01*
X310559Y348850D02*
Y355150D01*
X299535Y348850D02*
Y355150D01*
Y348850D02*
X310559D01*
X299535Y355150D02*
X310559D01*
X303079Y352000D02*
X307016D01*
X305047Y350031D02*
Y353969D01*
X276488Y348850D02*
Y355150D01*
X287512Y348850D02*
Y355150D01*
X276488D02*
X287512D01*
X276488Y348850D02*
X287512D01*
X280032Y352000D02*
X283969D01*
X282000Y350032D02*
Y353969D01*
X262850Y344088D02*
X269150D01*
X262850Y355112D02*
X269150D01*
X262850Y344088D02*
Y355112D01*
X269150Y344088D02*
Y355112D01*
X266000Y347631D02*
Y351568D01*
X264031Y349600D02*
X267969D01*
X262850Y342465D02*
X269150D01*
X262850Y331441D02*
X269150D01*
Y342465D01*
X262850Y331441D02*
Y342465D01*
X266000Y334984D02*
Y338921D01*
X264032Y336953D02*
X267969D01*
X247386Y329425D02*
X320614D01*
X247386Y282575D02*
X320614D01*
Y329425D01*
X247386Y282575D02*
Y329425D01*
X284000Y304031D02*
Y307969D01*
X282032Y306000D02*
X285969D01*
X233079Y317339D02*
X242921D01*
X233079Y334661D02*
X242921D01*
X233079Y317339D02*
Y334661D01*
X242921Y317339D02*
Y334661D01*
X238000Y324031D02*
Y327969D01*
X236031Y326000D02*
X239969D01*
X233079Y281276D02*
X242921D01*
X233079Y298598D02*
X242921D01*
X233079Y281276D02*
Y298598D01*
X242921Y281276D02*
Y298598D01*
X238000Y287969D02*
Y291906D01*
X236031Y289937D02*
X239969D01*
X270000Y268031D02*
Y271968D01*
X268031Y270000D02*
X271969D01*
X258976Y277480D02*
X281024D01*
X258976Y262520D02*
X281024D01*
X258976D02*
Y277480D01*
X281024Y262520D02*
Y277480D01*
X246850Y275512D02*
X253150D01*
X246850Y264488D02*
X253150D01*
Y275512D01*
X246850Y264488D02*
Y275512D01*
X250000Y268031D02*
Y271969D01*
X248032Y270000D02*
X251969D01*
X232000Y268031D02*
Y271968D01*
X230031Y270000D02*
X233969D01*
X220976Y277480D02*
X243024D01*
X220976Y262520D02*
X243024D01*
X220976D02*
Y277480D01*
X243024Y262520D02*
Y277480D01*
X210000Y268032D02*
Y271969D01*
X208032Y270000D02*
X211969D01*
X198976Y262520D02*
X221024D01*
X198976Y277480D02*
X221024D01*
Y262520D02*
Y277480D01*
X198976Y262520D02*
Y277480D01*
X193512Y274850D02*
Y281150D01*
X182488Y274850D02*
Y281150D01*
Y274850D02*
X193512D01*
X182488Y281150D02*
X193512D01*
X186031Y278000D02*
X189969D01*
X188000Y276031D02*
Y279968D01*
X170031Y286000D02*
X173968D01*
X172000Y284032D02*
Y287969D01*
X179480Y274976D02*
Y297024D01*
X164520Y274976D02*
Y297024D01*
X179480D01*
X164520Y274976D02*
X179480D01*
X157835Y284000D02*
X161772D01*
X159803Y282031D02*
Y285969D01*
X156850Y278488D02*
Y289512D01*
X162756Y278488D02*
Y289512D01*
X156850Y278488D02*
X162756D01*
X156850Y289512D02*
X162756D01*
X157835Y302000D02*
X161772D01*
X159803Y300031D02*
Y303969D01*
X156850Y296488D02*
Y307512D01*
X162756Y296488D02*
Y307512D01*
X156850Y296488D02*
X162756D01*
X156850Y307512D02*
X162756D01*
X170031Y308000D02*
X173968D01*
X172000Y306032D02*
Y309969D01*
X179480Y296976D02*
Y319024D01*
X164520Y296976D02*
Y319024D01*
X179480D01*
X164520Y296976D02*
X179480D01*
X180000Y334031D02*
Y337969D01*
X178032Y336000D02*
X181969D01*
X174488Y338953D02*
X185512D01*
X174488Y333047D02*
X185512D01*
X174488D02*
Y338953D01*
X185512Y333047D02*
Y338953D01*
X180850Y342488D02*
X187150D01*
X180850Y353512D02*
X187150D01*
X180850Y342488D02*
Y353512D01*
X187150Y342488D02*
Y353512D01*
X184000Y346032D02*
Y349969D01*
X182031Y348000D02*
X185968D01*
X172850Y342488D02*
X179150D01*
X172850Y353512D02*
X179150D01*
X172850Y342488D02*
Y353512D01*
X179150Y342488D02*
Y353512D01*
X176000Y346032D02*
Y349969D01*
X174031Y348000D02*
X177968D01*
X212031Y346000D02*
X215968D01*
X214000Y344032D02*
Y347969D01*
X221480Y334976D02*
Y357024D01*
X206520Y334976D02*
Y357024D01*
X221480D01*
X206520Y334976D02*
X221480D01*
X196031Y346000D02*
X199968D01*
X198000Y344032D02*
Y347969D01*
X205480Y334976D02*
Y357024D01*
X190520Y334976D02*
Y357024D01*
X205480D01*
X190520Y334976D02*
X205480D01*
X183276Y371942D02*
Y381785D01*
X200598Y371942D02*
Y381785D01*
X183276D02*
X200598D01*
X183276Y371942D02*
X200598D01*
X189969Y376864D02*
X193906D01*
X191937Y374895D02*
Y378832D01*
X172850Y376488D02*
X179150D01*
X172850Y387512D02*
X179150D01*
X172850Y376488D02*
Y387512D01*
X179150Y376488D02*
Y387512D01*
X176000Y380032D02*
Y383969D01*
X174031Y382000D02*
X177969D01*
X183276Y382609D02*
Y392451D01*
X200598Y382609D02*
Y392451D01*
X183276D02*
X200598D01*
X183276Y382609D02*
X200598D01*
X189969Y387530D02*
X193906D01*
X191937Y385562D02*
Y389499D01*
X137339Y365079D02*
Y374921D01*
X154661Y365079D02*
Y374921D01*
X137339D02*
X154661D01*
X137339Y365079D02*
X154661D01*
X144032Y370000D02*
X147969D01*
X146000Y368032D02*
Y371969D01*
X166764Y379173D02*
Y400827D01*
X137236Y379173D02*
Y400827D01*
Y379173D02*
X166764D01*
X137236Y400827D02*
X166764D01*
X150032Y390000D02*
X153969D01*
X152000Y388032D02*
Y391969D01*
X198000Y426032D02*
Y429969D01*
X196032Y428000D02*
X199969D01*
X186976Y420520D02*
X209024D01*
X186976Y435480D02*
X209024D01*
Y420520D02*
Y435480D01*
X186976Y420520D02*
Y435480D01*
X198000Y410032D02*
Y413969D01*
X196032Y412000D02*
X199969D01*
X186976Y404520D02*
X209024D01*
X186976Y419480D02*
X209024D01*
Y404520D02*
Y419480D01*
X186976Y404520D02*
Y419480D01*
X236850Y302488D02*
X243150D01*
X236850Y313512D02*
X243150D01*
X236850Y302488D02*
Y313512D01*
X243150Y302488D02*
Y313512D01*
X240000Y306032D02*
Y309969D01*
X238031Y308000D02*
X241968D01*
X158850Y339512D02*
X165150D01*
X158850Y328488D02*
X165150D01*
Y339512D01*
X158850Y328488D02*
Y339512D01*
X162000Y332031D02*
Y335969D01*
X160032Y334000D02*
X163969D01*
M02*
